<svg width="588" height="715" viewBox="0 0 588 715" fill="none" xmlns="http://www.w3.org/2000/svg">
<g clip-path="url(#clip0_1851_6318)">
<path d="M0 20C0 8.95432 8.95431 0 20 0H568C579.046 0 588 8.9543 588 20V695C588 706.046 579.046 715 568 715H20C8.95432 715 0 706.046 0 695V20Z" fill="url(#paint0_linear_1851_6318)" fill-opacity="0.04"/>
<g style="mix-blend-mode:screen" opacity="0.4">
<path d="M822.009 615.053C933.405 334.131 795.976 16.0942 515.053 -95.3011C234.131 -206.696 -83.9057 -69.2673 -195.301 211.655C-306.696 492.578 -169.267 810.614 111.655 922.009C392.578 1033.4 710.614 895.976 822.009 615.053Z" fill="url(#paint1_radial_1851_6318)" style="mix-blend-mode:screen"/>
<path d="M822.009 615.053C933.405 334.131 795.976 16.0942 515.053 -95.3011C234.131 -206.696 -83.9057 -69.2673 -195.301 211.655C-306.696 492.578 -169.267 810.614 111.655 922.009C392.578 1033.4 710.614 895.976 822.009 615.053Z" fill="#00FFA3" style="mix-blend-mode:hue"/>
</g>
<path d="M219 440H437C445.837 440 453 447.163 453 456V542" stroke="#00FFA3" stroke-width="4"/>
<path d="M218 108H437C445.837 108 453 115.163 453 124V210" stroke="#00FFA3" stroke-width="4"/>
<path d="M389 274H168C159.163 274 152 281.163 152 290V376" stroke="#00FFA3" stroke-width="4"/>
<rect x="91" y="43.5" width="126" height="128" rx="63" fill="#00FFA3"/>
<rect x="91" y="43.5" width="126" height="128" rx="63" stroke="#00FFA3" stroke-width="4"/>
<g clip-path="url(#clip1_1851_6318)">
<mask id="mask0_1851_6318" style="mask-type:luminance" maskUnits="userSpaceOnUse" x="110" y="64" width="87" height="87">
<path d="M110 64H197V151H110V64Z" fill="white"/>
</mask>
<g mask="url(#mask0_1851_6318)">
<path fill-rule="evenodd" clip-rule="evenodd" d="M123.642 82.5265C124.596 83.3601 126.045 83.2625 126.879 82.3085C128.235 80.7564 129.714 79.3161 131.301 78.0026C132.277 77.1948 132.413 75.7487 131.605 74.7728C130.797 73.7969 129.351 73.6606 128.375 74.4684C126.598 75.9393 124.942 77.5521 123.424 79.2897C122.59 80.2438 122.688 81.6929 123.642 82.5265Z" fill="#003724"/>
<path fill-rule="evenodd" clip-rule="evenodd" d="M115.669 100.583C116.904 100.867 118.135 100.096 118.419 98.8615C119.376 94.701 121.009 90.8004 123.197 87.2825C123.866 86.2067 123.537 84.7922 122.461 84.1231C121.385 83.454 119.97 83.7837 119.301 84.8595C116.851 88.7995 115.02 93.1703 113.948 97.8332C113.664 99.0679 114.434 100.299 115.669 100.583Z" fill="#003724"/>
<path fill-rule="evenodd" clip-rule="evenodd" d="M131.343 140.031C132.158 139.062 132.034 137.615 131.064 136.799C122.736 129.791 117.443 119.269 117.443 107.5C117.443 107.053 117.451 106.607 117.466 106.163C117.509 104.896 116.518 103.835 115.252 103.792C113.985 103.749 112.924 104.741 112.881 106.007C112.864 106.502 112.855 107 112.855 107.5C112.855 120.676 118.787 132.464 128.11 140.309C129.08 141.125 130.527 141 131.343 140.031Z" fill="#003724"/>
<path fill-rule="evenodd" clip-rule="evenodd" d="M134.86 144.961C140.961 148.351 147.978 150.279 155.438 150.279C162.922 150.279 169.962 148.338 176.078 144.927C177.184 144.31 177.581 142.912 176.964 141.806C176.347 140.699 174.95 140.303 173.843 140.92C168.392 143.96 162.119 145.692 155.438 145.692C148.779 145.692 142.526 143.972 137.088 140.951C135.981 140.335 134.584 140.735 133.969 141.842C133.354 142.949 133.753 144.346 134.86 144.961Z" fill="#003724"/>
<path fill-rule="evenodd" clip-rule="evenodd" d="M179.572 140.001C180.389 140.969 181.836 141.092 182.804 140.275C192.104 132.43 198.019 120.656 198.019 107.5C198.019 99.1719 195.647 91.3927 191.545 84.8148C190.874 83.7399 189.459 83.412 188.384 84.0825C187.309 84.7529 186.982 86.1679 187.652 87.2428C191.313 93.1125 193.431 100.054 193.431 107.5C193.431 119.252 188.153 129.76 179.846 136.768C178.878 137.585 178.755 139.032 179.572 140.001Z" fill="#003724"/>
<path fill-rule="evenodd" clip-rule="evenodd" d="M186.441 81.5429C187.369 80.6801 187.422 79.2286 186.559 78.3009C185.18 76.818 183.697 75.4335 182.121 74.1595C181.136 73.3629 179.692 73.5156 178.895 74.5006C178.098 75.4857 178.251 76.9301 179.236 77.7268C180.643 78.8643 181.967 80.1008 183.199 81.4253C184.062 82.353 185.514 82.4057 186.441 81.5429Z" fill="#003724"/>
<path fill-rule="evenodd" clip-rule="evenodd" d="M134.213 73.0048C134.82 74.1167 136.214 74.5257 137.326 73.9184C142.708 70.9789 148.875 69.3085 155.438 69.3085C161.832 69.3085 167.851 70.8944 173.134 73.6946C174.254 74.288 175.642 73.8616 176.235 72.7422C176.829 71.6228 176.402 70.2344 175.283 69.641C169.355 66.4988 162.6 64.7206 155.438 64.7206C148.087 64.7206 141.165 66.5937 135.126 69.892C134.015 70.4993 133.606 71.8929 134.213 73.0048Z" fill="#003724"/>
<path fill-rule="evenodd" clip-rule="evenodd" d="M156.864 82.3794C157.534 83.455 158.948 83.7843 160.024 83.115C164.377 80.4058 169.174 78.2759 174.33 76.8537C175.551 76.5169 176.268 75.2538 175.932 74.0325C175.595 72.8111 174.332 72.0941 173.11 72.431C167.523 73.9719 162.322 76.2811 157.6 79.2197C156.524 79.8891 156.195 81.3037 156.864 82.3794Z" fill="#003724"/>
<path fill-rule="evenodd" clip-rule="evenodd" d="M140.981 98.6535C142.016 99.3833 143.447 99.1353 144.177 98.0997C146.964 94.1441 150.27 90.5543 154.02 87.4429C154.995 86.6339 155.13 85.1877 154.321 84.2127C153.512 83.2377 152.066 83.1032 151.091 83.9122C147.026 87.2847 143.445 91.1738 140.427 95.457C139.697 96.4927 139.945 97.9238 140.981 98.6535Z" fill="#003724"/>
<path fill-rule="evenodd" clip-rule="evenodd" d="M132.506 139.142C133.764 138.988 134.658 137.844 134.505 136.587C133.112 125.203 135.313 114.093 140.286 104.503C140.869 103.379 140.43 101.994 139.306 101.411C138.181 100.828 136.797 101.266 136.213 102.391C130.828 112.777 128.443 124.814 129.951 137.144C130.105 138.401 131.249 139.296 132.506 139.142Z" fill="#003724"/>
<path fill-rule="evenodd" clip-rule="evenodd" d="M154.011 82.3794C154.681 81.3038 154.351 79.8891 153.276 79.2197C148.394 76.1817 143 73.8165 137.197 72.2773C135.973 71.9524 134.717 72.6818 134.392 73.9064C134.067 75.1309 134.796 76.387 136.021 76.7118C141.377 78.1326 146.351 80.3142 150.851 83.115C151.927 83.7843 153.342 83.455 154.011 82.3794Z" fill="#003724"/>
<path fill-rule="evenodd" clip-rule="evenodd" d="M175.042 108.624C176.2 108.108 176.72 106.752 176.204 105.595C172.478 97.2298 166.864 89.7871 159.784 83.9125C158.809 83.1035 157.363 83.238 156.554 84.213C155.745 85.188 155.88 86.6342 156.855 87.4432C163.387 92.8637 168.572 99.7355 172.014 107.462C172.529 108.619 173.885 109.139 175.042 108.624Z" fill="#003724"/>
<path fill-rule="evenodd" clip-rule="evenodd" d="M178.795 123.755C180.048 123.57 180.914 122.403 180.729 121.15C180.331 118.459 179.748 115.797 178.987 113.186C178.633 111.97 177.359 111.271 176.143 111.625C174.927 111.98 174.228 113.253 174.582 114.47C175.285 116.88 175.823 119.338 176.19 121.821C176.375 123.074 177.542 123.94 178.795 123.755Z" fill="#003724"/>
<path fill-rule="evenodd" clip-rule="evenodd" d="M178.337 139.334C179.594 139.492 180.741 138.601 180.898 137.344C181.249 134.554 181.404 131.739 181.361 128.926C181.341 127.659 180.298 126.648 179.032 126.668C177.765 126.688 176.754 127.73 176.773 128.997C176.814 131.594 176.67 134.194 176.346 136.772C176.188 138.029 177.08 139.176 178.337 139.334Z" fill="#003724"/>
<path fill-rule="evenodd" clip-rule="evenodd" d="M116.664 101.728C116.943 102.964 118.171 103.74 119.407 103.461C125.124 102.171 130.842 101.567 136.473 101.596C137.74 101.602 138.772 100.58 138.779 99.3133C138.785 98.0464 137.763 97.0142 136.497 97.0077C130.52 96.9773 124.456 97.6186 118.397 98.9858C117.161 99.2646 116.385 100.493 116.664 101.728Z" fill="#003724"/>
<path fill-rule="evenodd" clip-rule="evenodd" d="M174.247 109.289C174.836 108.166 174.403 106.78 173.281 106.192C164.388 101.53 154.616 98.5193 144.447 97.4464C143.187 97.3134 142.058 98.227 141.925 99.487C141.792 100.747 142.706 101.876 143.966 102.009C153.548 103.02 162.762 105.858 171.151 110.255C172.273 110.843 173.659 110.411 174.247 109.289Z" fill="#003724"/>
<path fill-rule="evenodd" clip-rule="evenodd" d="M194.061 125.117C194.976 124.24 195.007 122.788 194.131 121.873C189.909 117.464 185.216 113.566 180.158 110.241C179.099 109.545 177.677 109.839 176.981 110.898C176.285 111.957 176.579 113.379 177.638 114.075C182.409 117.212 186.835 120.888 190.817 125.046C191.693 125.961 193.146 125.993 194.061 125.117Z" fill="#003724"/>
<path fill-rule="evenodd" clip-rule="evenodd" d="M176.32 108.7C177.396 109.369 178.811 109.038 179.479 107.962C183.391 101.665 186.475 94.7647 188.564 87.4C188.909 86.1812 188.202 84.9129 186.983 84.5672C185.764 84.2216 184.496 84.9294 184.15 86.1483C182.18 93.0951 179.271 99.6026 175.582 105.541C174.913 106.617 175.244 108.032 176.32 108.7Z" fill="#003724"/>
<path fill-rule="evenodd" clip-rule="evenodd" d="M134.317 140.296C134.73 141.494 136.036 142.13 137.234 141.717C152.229 136.545 165.346 127.026 174.946 114.516C175.718 113.511 175.528 112.071 174.523 111.299C173.518 110.528 172.078 110.718 171.307 111.723C162.249 123.526 149.874 132.504 135.738 137.379C134.54 137.793 133.904 139.098 134.317 140.296Z" fill="#003724"/>
<path fill-rule="evenodd" clip-rule="evenodd" d="M149.27 83.0778C149.27 86.4811 152.024 89.2651 155.438 89.2651C158.852 89.2651 161.606 86.4811 161.606 83.0778C161.606 79.6746 158.852 76.8906 155.438 76.8906C152.024 76.8906 149.27 79.6746 149.27 83.0778ZM155.438 84.6772C154.579 84.6772 153.857 83.9684 153.857 83.0778C153.857 82.1874 154.579 81.4785 155.438 81.4785C156.297 81.4785 157.018 82.1874 157.018 83.0778C157.018 83.9684 156.297 84.6772 155.438 84.6772Z" fill="#003724"/>
<path fill-rule="evenodd" clip-rule="evenodd" d="M134.191 100.184C134.191 103.587 136.946 106.372 140.36 106.372C143.774 106.372 146.528 103.587 146.528 100.184C146.528 96.7814 143.774 93.997 140.36 93.997C136.946 93.997 134.191 96.7814 134.191 100.184ZM140.36 101.784C139.501 101.784 138.779 101.075 138.779 100.184C138.779 99.2939 139.501 98.5849 140.36 98.5849C141.219 98.5849 141.94 99.2939 141.94 100.184C141.94 101.075 141.219 101.784 140.36 101.784Z" fill="#003724"/>
<path fill-rule="evenodd" clip-rule="evenodd" d="M169.428 110.123C169.428 113.526 172.182 116.31 175.596 116.31C179.01 116.31 181.764 113.526 181.764 110.123C181.764 106.719 179.01 103.935 175.596 103.935C172.182 103.935 169.428 106.719 169.428 110.123ZM175.596 111.722C174.737 111.722 174.016 111.013 174.016 110.123C174.016 109.232 174.737 108.523 175.596 108.523C176.455 108.523 177.177 109.232 177.177 110.123C177.177 111.013 176.455 111.722 175.596 111.722Z" fill="#003724"/>
<path fill-rule="evenodd" clip-rule="evenodd" d="M126.641 140.715C126.641 144.118 129.395 146.902 132.809 146.902C136.223 146.902 138.977 144.118 138.977 140.715C138.977 137.311 136.223 134.527 132.809 134.527C129.395 134.527 126.641 137.311 126.641 140.715ZM132.809 142.314C131.95 142.314 131.229 141.605 131.229 140.715C131.229 139.824 131.95 139.115 132.809 139.115C133.668 139.115 134.39 139.824 134.39 140.715C134.39 141.605 133.668 142.314 132.809 142.314Z" fill="#003724"/>
<path fill-rule="evenodd" clip-rule="evenodd" d="M172.121 140.936C172.121 144.339 174.875 147.124 178.289 147.124C181.703 147.124 184.458 144.339 184.458 140.936C184.458 137.533 181.703 134.749 178.289 134.749C174.875 134.749 172.121 137.533 172.121 140.936ZM178.289 142.536C177.431 142.536 176.709 141.827 176.709 140.936C176.709 140.046 177.431 139.337 178.289 139.337C179.148 139.337 179.87 140.046 179.87 140.936C179.87 141.827 179.148 142.536 178.289 142.536Z" fill="#003724"/>
<path fill-rule="evenodd" clip-rule="evenodd" d="M181.154 82.8807C181.154 86.2839 183.909 89.0681 187.323 89.0681C190.737 89.0681 193.491 86.2837 193.491 82.8807C193.491 79.4776 190.737 76.6933 187.323 76.6933C183.909 76.6933 181.154 79.4775 181.154 82.8807ZM187.323 84.4802C186.464 84.4802 185.742 83.7711 185.742 82.8807C185.742 81.9903 186.464 81.2812 187.323 81.2812C188.182 81.2812 188.903 81.9901 188.903 82.8807C188.903 83.7712 188.182 84.4802 187.323 84.4802Z" fill="#003724"/>
<path fill-rule="evenodd" clip-rule="evenodd" d="M171.318 73.7378C171.318 77.1411 174.073 79.9252 177.487 79.9252C180.9 79.9252 183.655 77.1412 183.655 73.7378C183.655 70.3345 180.9 67.5506 177.487 67.5506C174.073 67.5506 171.318 70.3346 171.318 73.7378ZM177.487 75.3373C176.628 75.3373 175.906 74.6285 175.906 73.7378C175.906 72.8474 176.628 72.1385 177.487 72.1385C178.346 72.1385 179.067 72.8475 179.067 73.7378C179.067 74.6283 178.346 75.3373 177.487 75.3373Z" fill="#003724"/>
<path fill-rule="evenodd" clip-rule="evenodd" d="M126.641 73.7378C126.641 77.1411 129.395 79.9252 132.809 79.9252C136.223 79.9252 138.977 77.1412 138.977 73.7378C138.977 70.3345 136.223 67.5506 132.809 67.5506C129.395 67.5506 126.641 70.3346 126.641 73.7378ZM132.809 75.3373C131.95 75.3373 131.229 74.6285 131.229 73.7378C131.229 72.8474 131.95 72.1385 132.809 72.1385C133.668 72.1385 134.39 72.8475 134.39 73.7378C134.39 74.6283 133.668 75.3373 132.809 75.3373Z" fill="#003724"/>
<path fill-rule="evenodd" clip-rule="evenodd" d="M108.98 102.19C108.98 105.594 111.735 108.378 115.149 108.378C118.563 108.378 121.317 105.594 121.317 102.19C121.317 98.7871 118.563 96.0031 115.149 96.0031C111.735 96.0031 108.98 98.7871 108.98 102.19ZM115.149 103.79C114.29 103.79 113.568 103.081 113.568 102.19C113.568 101.3 114.29 100.591 115.149 100.591C116.008 100.591 116.729 101.3 116.729 102.19C116.729 103.081 116.008 103.79 115.149 103.79Z" fill="#003724"/>
</g>
</g>
<rect x="391" y="210.5" width="126" height="128" rx="63" fill="#00FFA3"/>
<rect x="391" y="210.5" width="126" height="128" rx="63" stroke="#00FFA3" stroke-width="4"/>
<path d="M438.039 306.9C437.988 307.404 438.032 307.931 438.216 308.453C438.665 309.711 439.717 310.735 440.965 311.122C442.124 311.488 443.277 311.244 443.627 310.864L446.044 308.269C446.744 307.521 446.921 306.326 446.51 305.166C445.498 303.227 444.142 302.527 442.406 302.214L438.039 306.9Z" fill="#003724"/>
<path d="M434.806 293.927L430.58 298.459C429.721 299.393 429.475 300.829 429.955 302.205C430.463 303.658 431.678 304.84 433.131 305.282C434.507 305.694 435.887 305.374 436.752 304.454L440.664 300.258C441.529 299.326 441.769 297.897 441.29 296.522C440.781 295.061 439.559 293.884 438.113 293.444C436.959 293.076 435.604 293.062 434.806 293.927Z" fill="#003724"/>
<path d="M426.427 286.469L422.526 290.659C421.666 291.586 421.425 293.026 421.9 294.406C422.409 295.855 423.623 297.038 425.077 297.479C426.45 297.897 427.844 297.571 428.279 297.111L432.611 292.462C433.475 291.528 433.716 290.092 433.236 288.719C432.725 287.261 431.511 286.083 430.057 285.646C428.721 285.21 427.241 285.598 426.427 286.469Z" fill="#003724"/>
<path d="M418.795 278.211L414.47 282.862C413.606 283.794 413.365 285.222 413.845 286.591C414.349 288.056 415.57 289.234 417.024 289.675C418.397 290.085 419.789 289.767 420.219 289.301L424.555 284.652V284.647C425.42 283.728 425.66 282.297 425.181 280.923C424.679 279.458 423.458 278.28 422.004 277.843C420.894 277.461 419.55 277.395 418.795 278.211Z" fill="#003724"/>
<path d="M474.943 250.473C472.146 252.037 468.258 252.317 464.471 252.589C461.607 252.785 458.652 252.992 456.528 253.777L444.721 258.133C444.641 258.165 444.56 258.184 444.475 258.196C443.905 258.285 443.377 258.362 442.904 258.428C440.029 258.833 439.697 258.957 439.366 259.808C439.064 260.595 439.395 261.729 440.213 262.692C440.879 263.484 443.488 265.955 448.855 264.684L455.579 263.796C459.344 263.311 462.363 265.765 464.774 267.746L482.856 282.212L482.87 282.205C486.445 280.709 490.169 278.763 493.335 274.95L474.943 250.473Z" fill="#003724"/>
<path d="M450.062 249.594C448.99 249.693 447.762 249.829 446.473 249.963C439.346 250.724 435.395 251.023 433.385 250.651L414.883 274.733C415.564 275.377 416.128 276.046 416.582 276.77C418.129 275.188 420.465 274.622 422.741 275.31C424.974 275.984 426.838 277.794 427.618 280.04C427.949 280.99 428.053 281.966 427.968 282.9C428.881 282.771 429.845 282.824 430.795 283.114C433.022 283.783 434.893 285.598 435.667 287.844C436.003 288.79 436.109 289.763 436.029 290.697C436.941 290.568 437.906 290.622 438.855 290.918C441.078 291.592 442.941 293.402 443.721 295.636C444.211 297.053 444.23 298.511 443.831 299.818C444.059 299.862 444.292 299.917 444.524 299.99C446.518 300.609 448.212 302.247 448.941 304.267C449.636 306.222 449.334 308.276 448.193 309.751L451.475 312.376C452.278 313.013 453.449 313.083 454.542 312.553C455.727 311.978 456.622 310.811 456.886 309.504C456.997 308.959 456.96 308.43 456.835 307.94L452.672 304.61C452.112 304.161 452.013 303.333 452.45 302.758C452.892 302.188 453.702 302.082 454.265 302.531L459.271 306.542C459.768 306.94 461.192 307.046 462.498 306.432C463.871 305.776 464.909 304.424 465.196 302.915C465.472 301.489 465.03 300.106 464.048 299.314L459.521 295.691C458.956 295.243 458.858 294.412 459.299 293.845C459.736 293.268 460.551 293.162 461.109 293.617L467.691 298.881C468.68 299.668 470.102 299.776 471.415 299.164C472.776 298.512 473.814 297.163 474.109 295.637C474.384 294.211 473.942 292.833 472.95 292.034L466.366 286.778C465.802 286.325 465.703 285.497 466.144 284.917C466.586 284.349 467.396 284.251 467.962 284.698C467.962 284.698 477.959 292.692 477.966 292.692C478.463 293.083 479.88 293.193 481.18 292.572C482.556 291.93 483.586 290.58 483.885 289.059C484.156 287.631 483.715 286.243 482.726 285.459L463.16 269.8C460.915 267.96 458.596 266.053 455.902 266.414L449.314 267.274C444.873 268.341 440.683 267.286 438.261 264.421C436.8 262.696 436.303 260.562 436.959 258.846C437.879 256.466 439.641 256.219 442.549 255.81C442.983 255.754 443.451 255.686 443.966 255.605L455.652 251.294C456.411 251.011 457.252 250.816 458.123 250.643C455.118 249.48 452.94 249.411 450.062 249.594Z" fill="#003724"/>
<path d="M424.665 245.031C422.537 244.869 420.594 246.473 417.797 250.116L410.643 259.435C408.055 262.796 407.086 264.887 407.3 266.658C407.472 268.114 408.485 269.542 409.49 270.348L412.883 273.058L431.309 249.075L428.924 247.166C427.285 245.858 425.942 245.129 424.665 245.031Z" fill="#003724"/>
<path d="M483.753 245.006C482.476 245.086 481.122 245.8 479.47 247.088L477.059 248.958L495.229 273.137L497.578 271.31C499.61 269.734 500.646 268.325 500.836 266.87C501.07 265.103 500.131 262.996 497.585 259.591L490.548 250.183C487.806 246.503 485.887 244.869 483.753 245.006Z" fill="#003724"/>
<rect x="91" y="377.5" width="126" height="127" rx="63" fill="#00FFA3"/>
<rect x="91" y="377.5" width="126" height="127" rx="63" stroke="#00FFA3" stroke-width="4"/>
<g clip-path="url(#clip2_1851_6318)">
<path d="M137.188 408.921C137.188 404.002 133.186 400 128.267 400C116.433 400.49 116.436 417.353 128.267 417.841C133.186 417.841 137.188 413.84 137.188 408.921Z" fill="#003724"/>
<path d="M143.537 435.854V433.11C142.695 412.849 113.834 412.865 113 433.11V435.854C113 437.18 114.076 438.256 115.402 438.256H141.134C142.461 438.256 143.537 437.18 143.537 435.854Z" fill="#003724"/>
<path d="M188.653 408.921C188.653 404.002 184.651 400 179.732 400C167.898 400.49 167.901 417.353 179.732 417.841C184.651 417.841 188.653 413.84 188.653 408.921Z" fill="#003724"/>
<path d="M179.731 417.841C171.312 417.841 164.463 424.691 164.463 433.11V435.854C164.463 437.18 165.538 438.256 166.865 438.256H192.597C193.924 438.256 194.999 437.18 194.999 435.854V433.11C194.999 424.691 188.15 417.841 179.731 417.841Z" fill="#003724"/>
<path d="M128.097 443.573C128.097 443.402 128.1 443.231 128.103 443.061H123.298C123.107 453.359 128.099 462.663 135.83 468.328C136.52 466.862 137.383 465.493 138.392 464.246C132.138 459.518 128.097 452.018 128.097 443.573Z" fill="#003724"/>
<path d="M143.398 419.933C149.788 416.941 158.212 416.941 164.602 419.933C165.741 418.626 167.046 417.468 168.485 416.492C159.981 411.703 148.019 411.703 139.516 416.492C140.954 417.468 142.259 418.627 143.398 419.933Z" fill="#003724"/>
<path d="M179.896 443.061C180.083 451.643 175.989 459.439 169.607 464.246C170.616 465.493 171.479 466.862 172.17 468.328C179.9 462.663 184.893 453.359 184.701 443.061H179.896Z" fill="#003724"/>
<path d="M162.92 452.665C162.92 447.746 158.919 443.744 154 443.744C142.165 444.234 142.168 461.097 154 461.585C158.919 461.585 162.92 457.584 162.92 452.665Z" fill="#003724"/>
<path d="M154.001 461.585C145.582 461.585 138.732 468.435 138.732 476.854V479.598C138.732 480.924 139.808 482 141.135 482H166.867C168.193 482 169.269 480.924 169.269 479.598V476.854C169.269 468.435 162.42 461.585 154.001 461.585Z" fill="#003724"/>
</g>
<rect x="389" y="541.5" width="130" height="132" rx="65" fill="#00FFA3"/>
<g clip-path="url(#clip3_1851_6318)">
<path d="M491.901 610.66C490.679 608.771 488.605 607.648 486.347 607.648C485.075 607.648 483.828 608.018 482.755 608.71C479.965 610.524 479.002 614.092 480.36 617.029L472.744 622.201C471.151 619.955 468.991 618.128 466.461 616.968L472.818 598.896C474.151 599.279 475.558 599.477 477.002 599.477C480.508 599.477 483.767 598.329 486.384 596.366C486.445 596.317 486.495 596.28 486.544 596.23C490.297 593.354 492.728 588.836 492.728 583.726C492.728 575.061 485.668 568 477.002 568C470.473 568 464.856 571.987 462.474 577.665L458.215 575.888C458.474 574.48 458.265 573.036 457.586 571.74C456.796 570.172 455.425 569.025 453.759 568.481C453.105 568.259 452.414 568.16 451.735 568.16C450.71 568.16 449.673 568.407 448.735 568.876C447.168 569.679 446.02 571.037 445.476 572.715C444.933 574.394 445.081 576.159 445.884 577.727C446.686 579.295 448.044 580.455 449.723 580.998C450.377 581.208 451.056 581.319 451.735 581.319C452.772 581.319 453.796 581.06 454.734 580.591C455.981 579.949 456.968 578.949 457.598 577.727L461.844 579.492C461.449 580.838 461.252 582.257 461.252 583.726C461.252 585.577 461.573 587.343 462.153 588.984L447.513 595.366C444.921 590.243 439.601 586.725 433.478 586.725C431.466 586.725 429.516 587.108 427.738 587.812L424.134 580.418C425.331 579.702 426.257 578.603 426.8 577.27C427.479 575.628 427.467 573.826 426.788 572.185C425.776 569.703 423.356 568.099 420.665 568.099C419.789 568.099 418.925 568.272 418.11 568.617C414.716 570.012 413.111 573.925 414.531 577.307C415.21 578.949 416.493 580.233 418.135 580.899C418.937 581.233 419.801 581.405 420.665 581.405C421.233 581.405 421.801 581.331 422.357 581.183L425.986 588.614C421.085 591.293 417.74 596.489 417.74 602.439C417.74 607.525 420.172 612.067 423.937 614.943C423.986 614.993 424.048 615.042 424.109 615.079C426.726 617.029 429.973 618.177 433.478 618.177C436.972 618.177 440.218 617.029 442.835 615.079C442.909 615.042 442.971 614.993 443.032 614.931C443.242 614.77 443.44 614.61 443.625 614.437L448.501 620.424C445.822 623.251 444.168 627.065 444.168 631.262C444.168 632.262 444.267 633.237 444.452 634.2L438.49 635.508C437.552 632.928 435.083 631.138 432.269 631.138C431.837 631.138 431.405 631.175 430.973 631.262C429.244 631.607 427.751 632.607 426.763 634.088C425.788 635.557 425.43 637.323 425.776 639.038C426.405 642.137 429.121 644.371 432.269 644.371C432.713 644.371 433.133 644.321 433.565 644.235C435.293 643.889 436.799 642.89 437.774 641.421C438.576 640.223 438.959 638.816 438.873 637.397L444.933 636.076C445.921 639.162 447.846 641.828 450.352 643.741C450.352 643.741 450.352 643.741 450.365 643.754C450.439 643.803 450.513 643.865 450.587 643.914C453.204 645.852 456.425 646.988 459.906 646.988C463.4 646.988 466.646 645.84 469.263 643.889C469.337 643.852 469.399 643.803 469.46 643.741C473.213 640.865 475.632 636.347 475.632 631.249C475.632 628.571 474.966 626.04 473.768 623.831L481.421 618.634C482.668 620.041 484.446 620.856 486.371 620.856C487.643 620.856 488.889 620.473 489.963 619.782C491.445 618.832 492.457 617.338 492.827 615.61C493.21 613.894 492.876 612.129 491.901 610.66ZM464.239 634.817C465.461 633.669 466.214 632.039 466.214 630.237C466.214 626.769 463.375 623.93 459.906 623.93C456.425 623.93 453.599 626.769 453.599 630.237C453.599 632.039 454.352 633.656 455.574 634.817C452.525 635.841 450.747 637.952 450.241 641.075C448.513 639.384 447.229 637.236 446.587 634.841C446.587 634.804 446.575 634.767 446.575 634.743C446.563 634.681 446.55 634.632 446.526 634.582C446.513 634.57 446.513 634.558 446.513 634.545C446.254 633.496 446.118 632.397 446.118 631.262C446.118 623.658 452.303 617.461 459.919 617.461C461.684 617.461 463.375 617.795 464.93 618.4L464.943 618.412H464.955C467.769 619.523 470.127 621.535 471.695 624.078C471.707 624.09 471.719 624.102 471.719 624.115C472.978 626.188 473.707 628.645 473.707 631.262C473.707 635.101 472.127 638.569 469.584 641.087C469.09 637.952 467.288 635.841 464.239 634.817ZM427.701 589.923C429.467 589.108 431.417 588.651 433.491 588.651C439.169 588.651 444.045 592.095 446.168 596.995V597.02C446.168 597.033 446.18 597.033 446.18 597.045C446.896 598.711 447.291 600.538 447.291 602.451C447.291 606.29 445.711 609.759 443.168 612.277C442.674 609.142 440.885 607.043 437.823 606.006C439.045 604.871 439.798 603.241 439.798 601.439C439.798 597.958 436.959 595.132 433.491 595.132C430.01 595.132 427.183 597.958 427.183 601.439C427.183 603.241 427.936 604.858 429.158 606.019C426.109 607.043 424.332 609.142 423.825 612.265C421.283 609.771 419.703 606.303 419.703 602.451C419.69 596.909 422.986 592.12 427.701 589.923ZM477.002 569.938C484.594 569.938 490.79 576.122 490.79 583.738C490.79 587.565 489.21 591.046 486.68 593.552C486.174 590.416 484.384 588.33 481.335 587.306C482.557 586.158 483.31 584.528 483.31 582.726C483.31 579.245 480.471 576.418 477.002 576.418C473.521 576.418 470.695 579.245 470.695 582.726C470.695 584.528 471.448 586.145 472.67 587.306C469.621 588.33 467.843 590.429 467.337 593.552C466.053 592.305 465.017 590.799 464.301 589.12V589.108C463.609 587.454 463.214 585.652 463.214 583.738C463.214 582.195 463.474 580.714 463.93 579.332C463.955 579.27 463.967 579.208 463.992 579.146C465.881 573.789 471.003 569.938 477.002 569.938ZM445.044 613.104C447.637 610.302 449.217 606.562 449.217 602.451C449.217 600.588 448.896 598.81 448.303 597.156C448.303 597.156 448.303 597.156 448.303 597.144L462.93 590.762C464.004 592.91 465.572 594.786 467.473 596.218C467.51 596.267 467.572 596.304 467.621 596.354C468.658 597.119 469.781 597.773 470.991 598.267L464.646 616.264C463.14 615.783 461.548 615.536 459.906 615.536C456.129 615.536 452.66 616.881 449.933 619.103L445.044 613.104Z" fill="#003724"/>
</g>
</g>
<path d="M0.5 20C0.5 9.23046 9.23045 0.5 20 0.5H568C578.77 0.5 587.5 9.23045 587.5 20V695C587.5 705.77 578.77 714.5 568 714.5H20C9.23046 714.5 0.5 705.77 0.5 695V20Z" stroke="url(#paint2_linear_1851_6318)"/>
<defs>
<linearGradient id="paint0_linear_1851_6318" x1="701.728" y1="-175.175" x2="-156.226" y2="780.065" gradientUnits="userSpaceOnUse">
<stop stop-color="white"/>
<stop offset="0.56821" stop-color="white" stop-opacity="0.51"/>
<stop offset="1" stop-color="white" stop-opacity="0"/>
</linearGradient>
<radialGradient id="paint1_radial_1851_6318" cx="0" cy="0" r="1" gradientUnits="userSpaceOnUse" gradientTransform="translate(304.549 417.013) scale(544.33 544.33)">
<stop stop-color="#018BBD"/>
<stop offset="0.28" stop-color="#02487C"/>
<stop offset="0.5" stop-color="#021D52"/>
<stop offset="0.61" stop-color="#030D42"/>
<stop offset="1"/>
</radialGradient>
<linearGradient id="paint2_linear_1851_6318" x1="368.991" y1="866.529" x2="874.018" y2="537.307" gradientUnits="userSpaceOnUse">
<stop stop-color="#00CC83" stop-opacity="0"/>
<stop offset="0.515" stop-color="#00CC83" stop-opacity="0.52"/>
<stop offset="1" stop-color="#00CC83" stop-opacity="0"/>
</linearGradient>
<clipPath id="clip0_1851_6318">
<path d="M0 20C0 8.95432 8.95431 0 20 0H568C579.046 0 588 8.9543 588 20V695C588 706.046 579.046 715 568 715H20C8.95432 715 0 706.046 0 695V20Z" fill="white"/>
</clipPath>
<clipPath id="clip1_1851_6318">
<rect width="87" height="87" fill="white" transform="translate(110 64)"/>
</clipPath>
<clipPath id="clip2_1851_6318">
<rect width="82" height="82" fill="white" transform="translate(113 400)"/>
</clipPath>
<clipPath id="clip3_1851_6318">
<rect width="79" height="79" fill="white" transform="translate(414 568)"/>
</clipPath>
</defs>
</svg>
