<svg width="588" height="715" viewBox="0 0 588 715" fill="none" xmlns="http://www.w3.org/2000/svg">
<g clip-path="url(#clip0_1851_6132)">
<path d="M0 20C0 8.95432 8.95431 0 20 0H568C579.046 0 588 8.9543 588 20V695C588 706.046 579.046 715 568 715H20C8.95432 715 0 706.046 0 695V20Z" fill="url(#paint0_linear_1851_6132)" fill-opacity="0.04"/>
<g style="mix-blend-mode:screen" opacity="0.4">
<path d="M822.009 615.053C933.405 334.131 795.976 16.0942 515.053 -95.3011C234.131 -206.696 -83.9057 -69.2673 -195.301 211.655C-306.696 492.578 -169.267 810.614 111.655 922.009C392.578 1033.4 710.614 895.976 822.009 615.053Z" fill="url(#paint1_radial_1851_6132)" style="mix-blend-mode:screen"/>
<path d="M822.009 615.053C933.405 334.131 795.976 16.0942 515.053 -95.3011C234.131 -206.696 -83.9057 -69.2673 -195.301 211.655C-306.696 492.578 -169.267 810.614 111.655 922.009C392.578 1033.4 710.614 895.976 822.009 615.053Z" fill="#00FFA3" style="mix-blend-mode:hue"/>
</g>
<path d="M219 440H437C445.837 440 453 447.163 453 456V542" stroke="#00FFA3" stroke-width="4"/>
<path d="M218 108H437C445.837 108 453 115.163 453 124V210" stroke="#00FFA3" stroke-width="4"/>
<path d="M389 274H168C159.163 274 152 281.163 152 290V376" stroke="#00FFA3" stroke-width="4"/>
<rect x="91" y="43.5" width="126" height="128" rx="63" fill="#00FFA3"/>
<rect x="91" y="43.5" width="126" height="128" rx="63" stroke="#00FFA3" stroke-width="4"/>
<path opacity="0.5" d="M116.375 100.969C116.375 87.7787 116.375 81.1837 117.932 78.9649C119.489 76.7462 125.691 74.6236 138.093 70.3783L140.456 69.5695C146.921 67.3565 150.153 66.25 153.5 66.25C156.847 66.25 160.079 67.3565 166.544 69.5695L168.907 70.3783C181.31 74.6236 187.511 76.7462 189.068 78.9649C190.625 81.1837 190.625 87.7787 190.625 100.969V107.465C190.625 130.721 173.139 142.008 162.168 146.8C159.193 148.1 157.705 148.75 153.5 148.75C149.295 148.75 147.807 148.1 144.832 146.8C133.861 142.008 116.375 130.721 116.375 107.465V100.969Z" fill="#003724"/>
<path d="M159.688 119.875C159.688 122.153 157.841 124 155.562 124H151.438C149.159 124 147.312 122.153 147.312 119.875V114.095C143.614 111.955 141.125 107.955 141.125 103.375C141.125 96.5405 146.665 91 153.5 91C160.335 91 165.875 96.5405 165.875 103.375C165.875 107.955 163.386 111.955 159.688 114.095V119.875Z" fill="#003724"/>
<rect x="391" y="210.5" width="126" height="128" rx="63" fill="#00FFA3"/>
<rect x="391" y="210.5" width="126" height="128" rx="63" stroke="#00FFA3" stroke-width="4"/>
<path d="M447.438 266.612C447.438 268.637 448 268.938 449.275 269.388L451.188 270.062V263.688H450.062C448.637 263.688 447.438 265 447.438 266.612Z" fill="#003724"/>
<path d="M456.812 284.315H457.938C459.4 284.315 460.562 283.003 460.562 281.39C460.562 279.365 460 279.065 458.725 278.615L456.812 277.94V284.315Z" fill="#003724"/>
<path d="M482.425 249.55L474.738 257.238C474.175 257.8 473.463 258.062 472.75 258.062C472.037 258.062 471.325 257.8 470.762 257.238C469.675 256.15 469.675 254.35 470.762 253.262L478.45 245.575C471.85 239.95 463.338 236.5 454 236.5C433.3 236.5 416.5 253.3 416.5 274C416.5 294.7 433.3 311.5 454 311.5C474.7 311.5 491.5 294.7 491.5 274C491.5 264.663 488.05 256.15 482.425 249.55ZM460.562 273.325C462.963 274.188 466.188 275.912 466.188 281.425C466.188 286.112 462.475 289.975 457.938 289.975H456.812V290.913C456.812 292.45 455.537 293.725 454 293.725C452.463 293.725 451.188 292.45 451.188 290.913V289.975H450.888C445.9 289.975 441.812 285.775 441.812 280.6C441.812 279.025 443.087 277.75 444.625 277.75C446.163 277.75 447.438 279.025 447.438 280.562C447.438 282.625 448.975 284.312 450.888 284.312H451.188V275.987L447.438 274.675C445.038 273.812 441.812 272.088 441.812 266.575C441.812 261.888 445.525 258.025 450.062 258.025H451.188V257.125C451.188 255.587 452.463 254.312 454 254.312C455.537 254.312 456.812 255.587 456.812 257.125V258.062H457.112C462.1 258.062 466.188 262.263 466.188 267.438C466.188 268.975 464.912 270.25 463.375 270.25C461.838 270.25 460.562 268.975 460.562 267.438C460.562 265.375 459.025 263.688 457.112 263.688H456.812V272.013L460.562 273.325Z" fill="#003724"/>
<path d="M494.088 235.413C493.788 234.738 493.263 234.175 492.55 233.875C492.213 233.762 491.875 233.688 491.5 233.688H476.5C474.962 233.688 473.688 234.962 473.688 236.5C473.688 238.037 474.962 239.312 476.5 239.312H484.713L478.45 245.575C479.875 246.812 481.187 248.125 482.425 249.55L488.687 243.287V251.5C488.687 253.037 489.962 254.312 491.5 254.312C493.037 254.312 494.312 253.037 494.312 251.5V236.5C494.312 236.125 494.238 235.787 494.088 235.413Z" fill="#003724"/>
<rect x="91" y="377.5" width="126" height="127" rx="63" fill="#00FFA3"/>
<rect x="91" y="377.5" width="126" height="127" rx="63" stroke="#00FFA3" stroke-width="4"/>
<path fill-rule="evenodd" clip-rule="evenodd" d="M117.95 409.034C113.166 413.818 113.166 421.517 113.166 436.917V437.938H194.833V436.917C194.833 421.517 194.833 413.818 190.049 409.034C185.265 404.25 177.565 404.25 162.166 404.25H145.833C130.433 404.25 122.734 404.25 117.95 409.034ZM194.833 444.062H113.166V445.083C113.166 460.482 113.166 468.182 117.95 472.966C122.734 477.75 130.433 477.75 145.833 477.75H162.166C177.565 477.75 185.265 477.75 190.049 472.966C194.833 468.182 194.833 460.482 194.833 445.083V444.062ZM126.437 463.458C126.437 465.15 127.808 466.521 129.499 466.521C131.191 466.521 132.562 465.15 132.562 463.458V455.292C132.562 453.6 131.191 452.229 129.499 452.229C127.808 452.229 126.437 453.6 126.437 455.292V463.458ZM141.749 466.521C140.058 466.521 138.687 465.15 138.687 463.458V455.292C138.687 453.6 140.058 452.229 141.749 452.229C143.441 452.229 144.812 453.6 144.812 455.292V463.458C144.812 465.15 143.441 466.521 141.749 466.521ZM160.124 456.313C158.433 456.313 157.062 457.684 157.062 459.375C157.062 461.066 158.433 462.438 160.124 462.438H178.499C180.191 462.438 181.562 461.066 181.562 459.375C181.562 457.684 180.191 456.313 178.499 456.313H160.124ZM141.749 429.771C140.058 429.771 138.687 428.4 138.687 426.708V418.542C138.687 416.85 140.058 415.479 141.749 415.479C143.441 415.479 144.812 416.85 144.812 418.542V426.708C144.812 428.4 143.441 429.771 141.749 429.771ZM126.437 426.708C126.437 428.4 127.808 429.771 129.499 429.771C131.191 429.771 132.562 428.4 132.562 426.708V418.542C132.562 416.85 131.191 415.479 129.499 415.479C127.808 415.479 126.437 416.85 126.437 418.542V426.708ZM157.062 422.625C157.062 420.934 158.433 419.563 160.124 419.563H178.499C180.191 419.563 181.562 420.934 181.562 422.625C181.562 424.316 180.191 425.688 178.499 425.688H160.124C158.433 425.688 157.062 424.316 157.062 422.625Z" fill="#003724"/>
<rect x="389" y="541.5" width="130" height="132" rx="65" fill="#00FFA3"/>
<path opacity="0.5" d="M453.498 569.417C470.979 569.417 479.72 569.417 485.15 574.847C487.959 577.656 489.315 581.351 489.97 586.683V599.083H417.025V586.683C417.68 581.351 419.036 577.656 421.845 574.847C427.276 569.417 436.016 569.417 453.498 569.417Z" fill="#003724"/>
<path fill-rule="evenodd" clip-rule="evenodd" d="M416.416 613.917C416.416 603.532 416.416 598.34 418.437 594.374C420.215 590.885 423.051 588.049 426.54 586.271C430.506 584.25 435.698 584.25 446.083 584.25H460.916C471.3 584.25 476.492 584.25 480.459 586.271C483.948 588.049 486.784 590.885 488.562 594.374C490.583 598.34 490.583 603.532 490.583 613.917C490.583 624.301 490.583 629.493 488.562 633.46C486.784 636.948 483.948 639.785 480.459 641.562C476.492 643.583 471.3 643.583 460.916 643.583H446.083C435.698 643.583 430.506 643.583 426.54 641.562C423.051 639.785 420.215 636.948 418.437 633.46C416.416 629.493 416.416 624.301 416.416 613.917ZM456.281 602.792C456.281 601.256 455.035 600.01 453.499 600.01C451.963 600.01 450.718 601.256 450.718 602.792V618.327L446.195 613.804C445.109 612.718 443.348 612.718 442.262 613.804C441.176 614.89 441.176 616.651 442.262 617.737L451.533 627.008C452.054 627.53 452.762 627.823 453.499 627.823C454.237 627.823 454.944 627.53 455.466 627.008L464.737 617.737C465.823 616.651 465.823 614.89 464.737 613.804C463.651 612.718 461.89 612.718 460.804 613.804L456.281 618.327V602.792Z" fill="#003724"/>
</g>
<path d="M0.5 20C0.5 9.23046 9.23045 0.5 20 0.5H568C578.77 0.5 587.5 9.23045 587.5 20V695C587.5 705.77 578.77 714.5 568 714.5H20C9.23046 714.5 0.5 705.77 0.5 695V20Z" stroke="url(#paint2_linear_1851_6132)"/>
<defs>
<linearGradient id="paint0_linear_1851_6132" x1="701.728" y1="-175.175" x2="-156.226" y2="780.065" gradientUnits="userSpaceOnUse">
<stop stop-color="white"/>
<stop offset="0.56821" stop-color="white" stop-opacity="0.51"/>
<stop offset="1" stop-color="white" stop-opacity="0"/>
</linearGradient>
<radialGradient id="paint1_radial_1851_6132" cx="0" cy="0" r="1" gradientUnits="userSpaceOnUse" gradientTransform="translate(304.549 417.013) scale(544.33 544.33)">
<stop stop-color="#018BBD"/>
<stop offset="0.28" stop-color="#02487C"/>
<stop offset="0.5" stop-color="#021D52"/>
<stop offset="0.61" stop-color="#030D42"/>
<stop offset="1"/>
</radialGradient>
<linearGradient id="paint2_linear_1851_6132" x1="368.991" y1="866.529" x2="874.018" y2="537.307" gradientUnits="userSpaceOnUse">
<stop stop-color="#00CC83" stop-opacity="0"/>
<stop offset="0.515" stop-color="#00CC83" stop-opacity="0.52"/>
<stop offset="1" stop-color="#00CC83" stop-opacity="0"/>
</linearGradient>
<clipPath id="clip0_1851_6132">
<path d="M0 20C0 8.95432 8.95431 0 20 0H568C579.046 0 588 8.9543 588 20V695C588 706.046 579.046 715 568 715H20C8.95432 715 0 706.046 0 695V20Z" fill="white"/>
</clipPath>
</defs>
</svg>
