<svg width="588" height="715" viewBox="0 0 588 715" fill="none" xmlns="http://www.w3.org/2000/svg">
<g clip-path="url(#clip0_1851_6271)">
<path d="M0 20C0 8.95432 8.95431 0 20 0H568C579.046 0 588 8.9543 588 20V695C588 706.046 579.046 715 568 715H20C8.95432 715 0 706.046 0 695V20Z" fill="url(#paint0_linear_1851_6271)" fill-opacity="0.04"/>
<g style="mix-blend-mode:screen" opacity="0.4">
<path d="M822.009 615.053C933.405 334.131 795.976 16.0942 515.053 -95.3011C234.131 -206.696 -83.9057 -69.2673 -195.301 211.655C-306.696 492.578 -169.267 810.614 111.655 922.009C392.578 1033.4 710.614 895.976 822.009 615.053Z" fill="url(#paint1_radial_1851_6271)" style="mix-blend-mode:screen"/>
<path d="M822.009 615.053C933.405 334.131 795.976 16.0942 515.053 -95.3011C234.131 -206.696 -83.9057 -69.2673 -195.301 211.655C-306.696 492.578 -169.267 810.614 111.655 922.009C392.578 1033.4 710.614 895.976 822.009 615.053Z" fill="#00FFA3" style="mix-blend-mode:hue"/>
</g>
<path d="M219 440H437C445.837 440 453 447.163 453 456V542" stroke="#00FFA3" stroke-width="4"/>
<path d="M218 108H437C445.837 108 453 115.163 453 124V210" stroke="#00FFA3" stroke-width="4"/>
<path d="M389 274H168C159.163 274 152 281.163 152 290V376" stroke="#00FFA3" stroke-width="4"/>
<rect x="91" y="43.5" width="126" height="128" rx="63" fill="#00FFA3"/>
<rect x="91" y="43.5" width="126" height="128" rx="63" stroke="#00FFA3" stroke-width="4"/>
<path d="M186.912 96.0383C179.446 96.0383 176.394 90.7583 180.106 84.282C182.251 80.5283 180.973 75.7433 177.219 73.5983L170.083 69.5145C166.824 67.5758 162.616 68.7308 160.677 71.9895L160.224 72.7733C156.511 79.2495 150.406 79.2495 146.653 72.7733L146.199 71.9895C144.342 68.7308 140.135 67.5758 136.876 69.5145L129.74 73.5983C125.986 75.7433 124.707 80.5695 126.852 84.3233C130.606 90.7583 127.554 96.0383 120.088 96.0383C115.798 96.0383 112.25 99.5445 112.25 103.876V111.136C112.25 115.426 115.756 118.973 120.088 118.973C127.554 118.973 130.606 124.253 126.852 130.73C124.707 134.483 125.986 139.268 129.74 141.413L136.876 145.497C140.135 147.436 144.342 146.281 146.281 143.022L146.735 142.238C150.447 135.762 156.552 135.762 160.306 142.238L160.76 143.022C162.699 146.281 166.906 147.436 170.165 145.497L177.301 141.413C181.055 139.268 182.334 134.442 180.189 130.73C176.435 124.253 179.488 118.973 186.954 118.973C191.244 118.973 194.791 115.467 194.791 111.136V103.876C194.75 99.5858 191.244 96.0383 186.912 96.0383ZM153.5 120.912C146.116 120.912 140.094 114.89 140.094 107.506C140.094 100.122 146.116 94.0995 153.5 94.0995C160.884 94.0995 166.906 100.122 166.906 107.506C166.906 114.89 160.884 120.912 153.5 120.912Z" fill="#003724"/>
<rect x="391" y="210.5" width="126" height="128" rx="63" fill="#00FFA3"/>
<rect x="391" y="210.5" width="126" height="128" rx="63" stroke="#00FFA3" stroke-width="4"/>
<path d="M412.701 275.132C412.701 272.22 413.303 269.63 414.507 267.362C415.739 265.066 417.475 263.288 419.715 262.028C421.955 260.74 424.531 260.096 427.443 260.096C431.139 260.096 434.247 261.09 436.767 263.078C439.287 265.038 440.911 267.712 441.639 271.1H432.777C432.245 269.98 431.503 269.126 430.551 268.538C429.627 267.95 428.549 267.656 427.317 267.656C425.413 267.656 423.887 268.342 422.739 269.714C421.619 271.058 421.059 272.864 421.059 275.132C421.059 277.428 421.619 279.262 422.739 280.634C423.887 281.978 425.413 282.65 427.317 282.65C428.549 282.65 429.627 282.356 430.551 281.768C431.503 281.18 432.245 280.326 432.777 279.206H441.639C440.911 282.594 439.287 285.282 436.767 287.27C434.247 289.23 431.139 290.21 427.443 290.21C424.531 290.21 421.955 289.58 419.715 288.32C417.475 287.032 415.739 285.254 414.507 282.986C413.303 280.69 412.701 278.072 412.701 275.132ZM453.469 266.984V271.814H462.919V278.072H453.469V283.406H464.179V290H445.237V260.39H464.179V266.984H453.469ZM486.469 290L480.715 281.642L475.801 290H466.435L476.053 274.838L466.099 260.39H475.801L481.387 268.538L486.175 260.39H495.541L486.049 275.3L496.171 290H486.469Z" fill="#003724"/>
<rect x="91" y="377.5" width="126" height="127" rx="63" fill="#00FFA3"/>
<rect x="91" y="377.5" width="126" height="127" rx="63" stroke="#00FFA3" stroke-width="4"/>
<g clip-path="url(#clip1_1851_6271)">
<path d="M175.375 431.5H132.625C128.698 431.5 125.5 434.698 125.5 438.625V471.875C125.5 475.802 128.698 479 132.625 479H175.375C179.302 479 182.5 475.802 182.5 471.875V438.625C182.5 434.698 179.302 431.5 175.375 431.5ZM152.797 452.875H155.203C158.908 452.875 161.917 455.883 161.917 459.588C161.917 462.913 159.51 465.668 156.375 466.207V468.708C156.375 470.007 155.298 471.083 154 471.083C152.702 471.083 151.625 470.007 151.625 468.708V466.333H148.458C147.16 466.333 146.083 465.257 146.083 463.958C146.083 462.66 147.16 461.583 148.458 461.583H155.203C156.28 461.583 157.167 460.697 157.167 459.62C157.167 458.512 156.28 457.625 155.203 457.625H152.797C149.092 457.625 146.083 454.617 146.083 450.912C146.083 447.587 148.49 444.832 151.625 444.293V441.792C151.625 440.493 152.702 439.417 154 439.417C155.298 439.417 156.375 440.493 156.375 441.792V444.167H159.542C160.84 444.167 161.917 445.243 161.917 446.542C161.917 447.84 160.84 448.917 159.542 448.917H152.797C151.72 448.917 150.833 449.803 150.833 450.88C150.833 451.988 151.72 452.875 152.797 452.875Z" fill="#003724"/>
<path d="M169.833 437.833C168.085 437.833 166.667 436.415 166.667 434.667V422C166.667 415.014 160.986 409.333 154 409.333C147.014 409.333 141.333 415.014 141.333 422V434.667C141.333 436.415 139.915 437.833 138.167 437.833C136.419 437.833 135 436.415 135 434.667V422C135 411.521 143.522 403 154 403C164.479 403 173 411.521 173 422V434.667C173 436.415 171.581 437.833 169.833 437.833Z" fill="#003724"/>
</g>
<rect x="389" y="541.5" width="130" height="132" rx="65" fill="#00FFA3"/>
<path opacity="0.5" d="M428.962 575.629C424.666 579.925 424.666 586.839 424.666 600.667V615.333C424.666 629.161 424.666 636.075 428.962 640.371C433.258 644.667 440.171 644.667 453.999 644.667C467.827 644.667 474.741 644.667 479.037 640.371C483.333 636.075 483.333 629.161 483.333 615.333V600.667C483.333 586.839 483.333 579.925 479.037 575.629C474.741 571.333 467.827 571.333 453.999 571.333C440.171 571.333 433.258 571.333 428.962 575.629Z" fill="#003724"/>
<path d="M443 579.583C441.481 579.583 440.25 580.815 440.25 582.333C440.25 583.852 441.481 585.083 443 585.083H465C466.519 585.083 467.75 583.852 467.75 582.333C467.75 580.815 466.519 579.583 465 579.583H443Z" fill="#003724"/>
<path d="M453.999 633.667C458.05 633.667 461.333 630.384 461.333 626.333C461.333 622.283 458.05 619 453.999 619C449.949 619 446.666 622.283 446.666 626.333C446.666 630.384 449.949 633.667 453.999 633.667Z" fill="#003724"/>
</g>
<path d="M0.5 20C0.5 9.23046 9.23045 0.5 20 0.5H568C578.77 0.5 587.5 9.23045 587.5 20V695C587.5 705.77 578.77 714.5 568 714.5H20C9.23046 714.5 0.5 705.77 0.5 695V20Z" stroke="url(#paint2_linear_1851_6271)"/>
<defs>
<linearGradient id="paint0_linear_1851_6271" x1="701.728" y1="-175.175" x2="-156.226" y2="780.065" gradientUnits="userSpaceOnUse">
<stop stop-color="white"/>
<stop offset="0.56821" stop-color="white" stop-opacity="0.51"/>
<stop offset="1" stop-color="white" stop-opacity="0"/>
</linearGradient>
<radialGradient id="paint1_radial_1851_6271" cx="0" cy="0" r="1" gradientUnits="userSpaceOnUse" gradientTransform="translate(304.549 417.013) scale(544.33 544.33)">
<stop stop-color="#018BBD"/>
<stop offset="0.28" stop-color="#02487C"/>
<stop offset="0.5" stop-color="#021D52"/>
<stop offset="0.61" stop-color="#030D42"/>
<stop offset="1"/>
</radialGradient>
<linearGradient id="paint2_linear_1851_6271" x1="368.991" y1="866.529" x2="874.018" y2="537.307" gradientUnits="userSpaceOnUse">
<stop stop-color="#00CC83" stop-opacity="0"/>
<stop offset="0.515" stop-color="#00CC83" stop-opacity="0.52"/>
<stop offset="1" stop-color="#00CC83" stop-opacity="0"/>
</linearGradient>
<clipPath id="clip0_1851_6271">
<path d="M0 20C0 8.95432 8.95431 0 20 0H568C579.046 0 588 8.9543 588 20V695C588 706.046 579.046 715 568 715H20C8.95432 715 0 706.046 0 695V20Z" fill="white"/>
</clipPath>
<clipPath id="clip1_1851_6271">
<rect width="76" height="76" fill="white" transform="translate(116 403)"/>
</clipPath>
</defs>
</svg>
