<svg width="89" height="88" viewBox="0 0 89 88" fill="none" xmlns="http://www.w3.org/2000/svg">
<rect x="0.332031" width="88" height="88" rx="44" fill="#00FFA3" fill-opacity="0.05"/>
<rect x="0.832031" y="0.5" width="87" height="87" rx="43.5" stroke="url(#paint0_linear_2562_306)" stroke-opacity="0.54"/>
<g clip-path="url(#clip0_2562_306)">
<path d="M51.7969 37.9297C44.3336 37.9297 38.2617 44.0016 38.2617 51.4648C38.2617 58.9281 44.3336 65 51.7969 65C59.2602 65 65.332 58.9281 65.332 51.4648C65.332 44.0016 59.2602 37.9297 51.7969 37.9297ZM51.7969 50.2344C53.8324 50.2344 55.4883 51.8903 55.4883 53.9258C55.4883 55.5279 54.4565 56.8809 53.0273 57.3905V60.0781H50.5664V57.3905C49.1373 56.8809 48.1055 55.5279 48.1055 53.9258H50.5664C50.5664 54.6047 51.118 55.1562 51.7969 55.1562C52.4758 55.1562 53.0273 54.6047 53.0273 53.9258C53.0273 53.2469 52.4758 52.6953 51.7969 52.6953C49.7614 52.6953 48.1055 51.0394 48.1055 49.0039C48.1055 47.4018 49.1373 46.0488 50.5664 45.5392V42.8516H53.0273V45.5392C54.4565 46.0488 55.4883 47.4018 55.4883 49.0039H53.0273C53.0273 48.325 52.4758 47.7734 51.7969 47.7734C51.118 47.7734 50.5664 48.325 50.5664 49.0039C50.5664 49.6828 51.118 50.2344 51.7969 50.2344Z" fill="white"/>
<path d="M37.0312 37.9297C44.6208 37.9297 50.5664 34.6865 50.5664 30.5469C50.5664 26.4072 44.6208 23 37.0312 23C29.4417 23 23.332 26.4072 23.332 30.5469C23.332 34.6865 29.4417 37.9297 37.0312 37.9297Z" fill="white"/>
<path d="M23.332 50.6904V52.6954C23.332 56.835 29.4417 60.0782 37.0312 60.0782C37.4618 60.0782 37.8789 60.0385 38.3027 60.0178C37.3589 58.5338 36.655 56.8871 36.2405 55.1267C30.7522 54.9752 25.9867 53.2887 23.332 50.6904Z" fill="white"/>
<path d="M35.8599 52.6327C35.8317 52.2457 35.8008 51.859 35.8008 51.4649C35.8008 50.1822 35.9689 48.9407 36.2555 47.7445C30.7604 47.5956 25.9891 45.9083 23.332 43.3076V45.3125C23.332 49.2326 28.8496 52.3133 35.8599 52.6327Z" fill="white"/>
<path d="M37.0313 45.3125C37.0326 45.3125 37.0336 45.3124 37.035 45.3124C37.8466 43.3728 39.0263 41.6244 40.4912 40.1595C39.38 40.2999 38.2315 40.3907 37.0313 40.3907C31.1892 40.3907 26.115 38.6486 23.332 35.9248V37.9297C23.332 42.0694 29.4417 45.3125 37.0313 45.3125Z" fill="white"/>
</g>
<defs>
<linearGradient id="paint0_linear_2562_306" x1="55.5552" y1="106.65" x2="121.697" y2="54.2201" gradientUnits="userSpaceOnUse">
<stop stop-color="#00CC83" stop-opacity="0"/>
<stop offset="0.515" stop-color="#00CC83" stop-opacity="0.52"/>
<stop offset="1" stop-color="#00CC83" stop-opacity="0"/>
</linearGradient>
<clipPath id="clip0_2562_306">
<rect width="42" height="42" fill="white" transform="translate(23.332 23)"/>
</clipPath>
</defs>
</svg>
