<svg width="207" height="205" viewBox="0 0 207 205" fill="none" xmlns="http://www.w3.org/2000/svg">
<path d="M8.18359 45.9523C8.18359 45.9523 31.5277 66.3379 72.4968 78.5046C102.594 87.443 120.219 95.0235 146.342 86.9934L94.7439 7.62695L8.18359 45.9523Z" fill="#088452"/>
<path d="M48.8192 160.2L8.56055 45.7633L9.26192 45.5115L48.1628 156.09L31.3202 49.585L32.0485 49.4681L49.5387 160.02L48.8192 160.2Z" fill="white"/>
<path d="M56.1361 56.87L48.8125 160.049L49.557 160.102L56.8806 56.9228L56.1361 56.87Z" fill="white"/>
<path d="M48.7953 160.191L48.3008 159.643L124.727 76.7063L125.275 77.2099L51.601 157.161L145.841 86.472L146.29 87.0745L48.7953 160.191Z" fill="white"/>
<path d="M99.4871 69.6151L48.2676 159.741L48.9165 160.11L100.136 69.9839L99.4871 69.6151Z" fill="white"/>
<path d="M94.7447 7.63576C48.515 -0.0257192 31.6005 50.826 31.6005 50.826C31.6005 50.826 21.2233 39.7474 8.19336 45.9611C8.19336 45.9611 39.0911 -10.6457 94.7537 7.63576H94.7447Z" fill="#00C076"/>
<path d="M94.7458 7.63584C87.7857 8.22034 81.4281 13.4988 75.9787 20.4769C63.992 35.8268 56.3845 59.4048 56.3845 59.4048C56.3845 59.4048 45.7195 44.3965 31.6016 50.8261C31.6016 50.8261 48.5161 -0.0166426 94.7458 7.63584Z" fill="#00FFA2"/>
<path d="M146.329 87.0024C138.803 74.6829 124.064 78.2978 124.064 78.2978C124.064 78.2978 137.652 26.466 94.7402 7.63599C151.356 22.6982 146.338 87.0024 146.338 87.0024H146.329Z" fill="#00C076"/>
<path d="M124.064 78.2888C115.746 65.1869 98.6159 71.9402 98.6159 71.9402C98.7418 71.4546 105.099 47.8317 103.454 28.6331C102.698 19.8116 100.253 11.9253 94.7402 7.62695C137.661 26.4479 124.064 78.2888 124.064 78.2888Z" fill="#00FFA2"/>
<path d="M98.6179 71.9492C98.6179 71.9492 105.119 48.0386 103.456 28.6421C102.7 19.8206 100.254 11.9343 94.7422 7.63599C87.7821 8.22049 81.4245 13.499 75.9752 20.477C63.9884 35.827 56.3809 59.4049 56.3809 59.4049C56.3809 59.4049 66.6591 56.7881 79.0505 60.466C91.442 64.1439 98.6269 71.9582 98.6269 71.9582L98.6179 71.9492Z" fill="#00C076"/>
<path d="M40.9314 188.643L7.24609 186.215L20.5547 141.424L54.2401 143.852L40.9314 188.643Z" fill="#E89B00"/>
<path d="M40.9336 188.643L70.4914 205L83.7911 160.209L54.2422 143.852L40.9336 188.643Z" fill="#FFBC02"/>
<path d="M7.24609 186.215L40.9314 188.643L70.4893 205L36.7949 202.572L7.24609 186.215Z" fill="#AE7400"/>
<path d="M54.2402 143.852L65.004 163.725L95.2633 180.019L83.7891 160.209L54.2402 143.852Z" fill="#FFD847"/>
<path d="M54.1159 143.816L34.2429 154.589L0 151.72L20.4216 141.388L54.1159 143.816Z" fill="#FFCC02"/>
<path style="mix-blend-mode:screen" opacity="0.5" d="M152.152 41.8223L115.737 163.148L130.267 180.364L170.123 47.574L152.152 41.8223Z" fill="url(#paint0_linear_4001_4509)"/>
<path d="M130.33 180.346L129.027 181.479C126.584 183.6 121.345 181.459 117.328 176.699C113.308 171.937 112.029 166.358 114.473 164.234L115.776 163.101C113.334 165.221 114.614 170.805 118.631 175.565C122.652 180.327 127.891 182.467 130.333 180.347L130.33 180.346Z" fill="#B59101"/>
<path d="M130.325 180.352C127.882 182.473 122.644 180.333 118.627 175.573C114.607 170.811 113.329 165.233 115.772 163.109C118.215 160.989 123.453 163.129 127.47 167.889C131.49 172.65 132.768 178.229 130.325 180.352Z" fill="#FFD847"/>
<path d="M118.698 175.507C114.699 170.767 113.415 165.218 115.808 163.074C115.795 163.084 115.785 163.092 115.771 163.103C113.328 165.223 114.606 170.807 118.627 175.569C122.647 180.331 127.887 182.472 130.327 180.35C130.337 180.338 130.348 180.327 130.362 180.317C127.905 182.389 122.697 180.248 118.698 175.507Z" fill="url(#paint1_linear_4001_4509)"/>
<path d="M129.424 179.285C127.283 181.145 122.696 179.268 119.177 175.097C115.657 170.926 114.535 166.038 116.676 164.178C118.817 162.319 123.403 164.195 126.923 168.366C130.442 172.537 131.565 177.426 129.424 179.285Z" fill="#FF5600"/>
<path d="M129.163 178.973C127.113 180.755 122.711 178.96 119.335 174.956C115.958 170.956 114.882 166.266 116.936 164.485C118.986 162.704 123.388 164.499 126.764 168.503C130.141 172.503 131.217 177.193 129.163 178.973Z" fill="#FFCC02"/>
<path d="M119.741 174.603C119.576 174.399 119.418 174.198 119.269 173.999L119.414 173.917C119.558 174.11 119.714 174.307 119.871 174.501C119.978 174.627 120.093 174.759 120.207 174.887L120.095 175.01C119.977 174.877 119.855 174.742 119.74 174.606L119.741 174.603ZM120.653 175.597L120.744 175.449C121.034 175.74 121.338 176.021 121.645 176.281L121.591 176.459C121.27 176.188 120.954 175.899 120.654 175.593L120.653 175.597ZM118.799 173.345C118.55 172.986 118.32 172.625 118.115 172.273L118.3 172.247C118.498 172.586 118.72 172.937 118.962 173.283L118.802 173.346L118.799 173.345ZM122.197 176.947L122.228 176.751C122.538 176.986 122.858 177.202 123.171 177.394L123.175 177.616C122.847 177.416 122.516 177.189 122.193 176.946L122.197 176.947ZM117.742 171.591C117.552 171.224 117.386 170.859 117.247 170.501L117.463 170.545C117.597 170.886 117.759 171.239 117.939 171.591L117.742 171.591ZM123.791 177.964L123.764 177.727C124.075 177.889 124.389 178.033 124.694 178.145L124.759 178.398C124.442 178.278 124.119 178.131 123.795 177.962L123.791 177.964ZM117.009 169.837C116.9 169.485 116.813 169.141 116.757 168.81L116.995 168.923C117.052 169.239 117.132 169.571 117.238 169.91L117.012 169.838L117.009 169.837ZM125.34 178.594L125.252 178.335C125.545 178.417 125.836 178.473 126.106 178.504L126.227 178.771C125.943 178.739 125.646 178.681 125.34 178.594ZM116.678 168.204C116.655 167.895 116.658 167.594 116.686 167.312L116.927 167.485C116.899 167.755 116.897 168.042 116.919 168.343L116.677 168.207L116.678 168.204ZM126.746 178.793L126.608 178.525C126.865 178.518 127.11 178.49 127.334 178.429L127.501 178.692C127.267 178.754 127.014 178.787 126.747 178.79L126.746 178.793ZM116.771 166.809C116.83 166.556 116.919 166.319 117.023 166.102L117.251 166.318C117.146 166.524 117.063 166.755 117.007 166.999L116.771 166.809ZM127.923 178.547L127.74 178.29C127.94 178.199 128.128 178.079 128.292 177.936L128.305 177.926L128.511 178.168L128.497 178.182C128.325 178.329 128.132 178.452 127.923 178.547ZM117.253 165.727C117.363 165.574 117.493 165.435 117.633 165.311C117.662 165.283 117.694 165.26 117.723 165.236L117.924 165.481C117.896 165.505 117.864 165.528 117.836 165.552C117.701 165.671 117.576 165.804 117.47 165.954L117.25 165.726L117.253 165.727ZM128.583 177.628C128.72 177.454 128.833 177.255 128.923 177.037L129.153 177.247C129.06 177.475 128.942 177.68 128.799 177.859L128.583 177.628ZM118.27 165.26L118.079 165.004C118.281 164.896 118.501 164.811 118.737 164.754L118.905 165.018C118.677 165.07 118.465 165.153 118.271 165.257L118.27 165.26ZM129.068 176.605C129.127 176.363 129.164 176.099 129.178 175.819L129.419 175.981C129.406 176.271 129.368 176.546 129.306 176.799L129.071 176.606L129.068 176.605ZM119.354 164.947L119.205 164.679C119.464 164.655 119.741 164.662 120.023 164.697L120.141 164.963C119.868 164.931 119.605 164.924 119.354 164.947ZM129.17 175.272C129.15 174.975 129.107 174.66 129.042 174.337L129.28 174.439C129.349 174.774 129.395 175.101 129.41 175.412L129.17 175.272ZM120.667 165.058L120.57 164.795C120.871 164.865 121.186 164.966 121.502 165.092L121.56 165.343C121.258 165.22 120.955 165.124 120.664 165.057L120.667 165.058ZM128.892 173.722C128.795 173.386 128.676 173.043 128.536 172.7L128.75 172.739C128.896 173.098 129.022 173.455 129.119 173.802L128.887 173.728L128.892 173.722ZM122.142 165.606L122.108 165.367C122.43 165.528 122.762 165.719 123.092 165.935L123.087 166.15C122.772 165.943 122.452 165.76 122.145 165.607L122.142 165.606ZM128.246 172.044C128.079 171.696 127.889 171.341 127.683 170.996L127.865 170.966C128.078 171.324 128.278 171.694 128.451 172.058L128.246 172.044ZM123.676 166.566L123.704 166.366C124.025 166.604 124.348 166.869 124.669 167.152L124.603 167.322C124.296 167.051 123.981 166.796 123.676 166.566ZM127.274 170.347C127.045 170.005 126.798 169.665 126.539 169.339L126.678 169.243C126.946 169.583 127.204 169.934 127.443 170.29L127.278 170.344L127.274 170.347ZM125.167 167.845L125.252 167.691C125.549 167.982 125.851 168.295 126.148 168.622L126.036 168.748C125.749 168.432 125.456 168.128 125.166 167.848L125.167 167.845Z" fill="#FF5600"/>
<path d="M124.144 169.697C124.248 169.741 124.372 169.81 124.479 169.932C124.708 170.193 124.952 170.437 125.186 170.692C125.451 170.983 125.516 171.235 125.357 171.387C125.218 171.519 125.082 171.656 124.943 171.789C124.799 171.927 124.544 171.845 124.305 171.585C124.062 171.324 123.82 171.062 123.581 170.802C123.349 170.551 123.282 170.283 123.417 170.15C123.564 170.005 123.712 169.864 123.861 169.724C123.92 169.666 124.012 169.655 124.148 169.698L124.144 169.697Z" fill="white"/>
<path d="M124.082 173.306C124.055 173.184 124.073 173.09 124.134 173.028C124.28 172.883 124.432 172.744 124.577 172.603C124.702 172.481 124.974 172.564 125.195 172.8C125.43 173.052 125.662 173.313 125.901 173.563C126 173.668 126.08 173.767 126.125 173.885C126.188 174.041 126.181 174.156 126.11 174.229C125.961 174.381 125.81 174.531 125.654 174.673C125.521 174.796 125.261 174.71 125.04 174.473C124.789 174.202 124.539 173.931 124.286 173.659C124.183 173.545 124.117 173.424 124.079 173.302L124.082 173.306Z" fill="white"/>
<path d="M127.188 172.982C127.208 173.091 127.202 173.181 127.142 173.239C126.987 173.389 126.836 173.539 126.679 173.684C126.547 173.804 126.285 173.713 126.069 173.482C125.823 173.22 125.581 172.955 125.337 172.689C125.097 172.429 125.032 172.165 125.173 172.026C125.317 171.888 125.458 171.749 125.603 171.611C125.741 171.478 125.999 171.561 126.231 171.811C126.484 172.084 126.736 172.359 126.99 172.631C127.094 172.742 127.151 172.859 127.185 172.981L127.188 172.982Z" fill="white"/>
<path d="M124.961 174.894C124.983 174.982 124.969 175.051 124.925 175.093C124.785 175.228 124.645 175.364 124.502 175.499C124.413 175.584 124.231 175.53 124.077 175.363C123.831 175.101 123.586 174.838 123.345 174.57C123.205 174.415 123.157 174.223 123.238 174.142C123.38 173.999 123.524 173.861 123.671 173.724C123.76 173.642 123.941 173.696 124.09 173.858C124.334 174.116 124.575 174.381 124.818 174.642C124.893 174.721 124.941 174.807 124.961 174.894Z" fill="white"/>
<path d="M122.865 169.799C122.781 169.772 122.7 169.713 122.622 169.633C122.387 169.382 122.155 169.131 121.925 168.877C121.755 168.69 121.711 168.507 121.812 168.407C121.947 168.277 122.082 168.147 122.215 168.02C122.325 167.915 122.502 167.972 122.686 168.17C122.915 168.416 123.144 168.666 123.37 168.911C123.532 169.088 123.578 169.276 123.486 169.368C123.35 169.501 123.208 169.633 123.072 169.769C123.025 169.817 122.958 169.829 122.866 169.796L122.865 169.799Z" fill="white"/>
<path d="M121.061 169.695C121.043 169.638 121.057 169.602 121.084 169.573C121.178 169.482 121.271 169.386 121.368 169.299C121.427 169.244 121.526 169.276 121.628 169.382C121.788 169.555 121.948 169.728 122.107 169.9C122.209 170.01 122.231 170.109 122.171 170.167C122.077 170.259 121.982 170.35 121.887 170.441C121.828 170.496 121.734 170.47 121.636 170.361C121.473 170.188 121.311 170.011 121.149 169.837C121.106 169.791 121.072 169.739 121.06 169.687L121.061 169.695Z" fill="white"/>
<path d="M122.499 173.345C122.448 173.328 122.402 173.292 122.36 173.245C122.203 173.077 122.046 172.905 121.89 172.734C121.776 172.609 121.754 172.517 121.82 172.45C121.91 172.364 121.997 172.274 122.089 172.19C122.163 172.121 122.254 172.147 122.373 172.28C122.522 172.442 122.671 172.6 122.817 172.761C122.939 172.895 122.963 172.992 122.891 173.065C122.801 173.154 122.708 173.238 122.618 173.327C122.591 173.356 122.553 173.366 122.499 173.345Z" fill="white"/>
<path d="M124.208 172.235C124.071 172.372 123.931 172.508 123.789 172.64C123.691 172.73 123.511 172.672 123.344 172.498C123.133 172.272 122.924 172.05 122.717 171.822C122.603 171.697 122.49 171.602 122.357 171.575C122.27 171.558 122.224 171.595 122.182 171.64C122.086 171.746 122.053 171.809 121.819 171.543C121.742 171.456 121.664 171.376 121.587 171.292C121.5 171.194 121.48 171.118 121.531 171.068C121.596 171.004 121.662 170.947 121.725 170.882C121.763 170.836 121.866 170.872 121.931 170.948C121.995 171.017 122.055 171.087 122.123 171.157C122.18 171.212 122.238 171.267 122.305 171.289C122.425 171.327 122.508 171.309 122.57 171.244C122.69 171.117 122.82 171.003 122.945 170.881C123.045 170.784 123.22 170.836 123.392 171.016C123.633 171.27 123.87 171.53 124.103 171.789C124.258 171.964 124.302 172.147 124.21 172.243L124.208 172.235Z" fill="white"/>
<path d="M120.492 170.433C120.54 170.449 120.58 170.48 120.617 170.521C120.729 170.642 120.838 170.761 120.95 170.882C121.021 170.96 121.045 171.034 121.003 171.079C120.935 171.153 120.865 171.219 120.789 171.284C120.746 171.321 120.67 171.293 120.598 171.215C120.48 171.093 120.366 170.968 120.253 170.84C120.184 170.763 120.164 170.69 120.206 170.644C120.273 170.574 120.347 170.505 120.419 170.44C120.438 170.424 120.469 170.426 120.495 170.434L120.492 170.433Z" fill="white"/>
<path style="mix-blend-mode:screen" opacity="0.5" d="M203.562 0.0223389L167.147 121.348L181.677 138.564L221.533 5.77409L203.562 0.0223389Z" fill="url(#paint2_linear_4001_4509)"/>
<path d="M181.74 138.545L180.437 139.678C177.994 141.799 172.755 139.659 168.738 134.898C164.718 130.136 163.44 124.557 165.883 122.433L167.187 121.3C164.744 123.42 166.024 129.004 170.042 133.765C174.062 138.526 179.301 140.666 181.744 138.546L181.74 138.545Z" fill="#B59101"/>
<path d="M181.735 138.552C179.292 140.672 174.054 138.532 170.037 133.772C166.017 129.011 164.739 123.432 167.182 121.308C169.625 119.188 174.863 121.328 178.88 126.088C182.9 130.849 184.178 136.428 181.735 138.552Z" fill="#FFD847"/>
<path d="M170.108 133.706C166.109 128.966 164.825 123.417 167.218 121.273C167.205 121.283 167.195 121.291 167.181 121.302C164.739 123.423 166.016 129.006 170.037 133.768C174.058 138.53 179.297 140.671 181.737 138.549C181.747 138.538 181.758 138.526 181.772 138.516C179.315 140.588 174.107 138.447 170.108 133.706Z" fill="url(#paint3_linear_4001_4509)"/>
<path d="M180.834 137.484C178.693 139.344 174.106 137.467 170.587 133.296C167.067 129.126 165.945 124.237 168.086 122.378C170.227 120.518 174.814 122.395 178.333 126.565C181.853 130.736 182.975 135.625 180.834 137.484Z" fill="#FF5600"/>
<path d="M180.574 137.173C178.523 138.954 174.121 137.159 170.745 133.155C167.368 129.155 166.292 124.465 168.346 122.685C170.396 120.903 174.799 122.699 178.174 126.702C181.551 130.702 182.627 135.392 180.574 137.173Z" fill="#FFCC02"/>
<path d="M171.151 132.802C170.986 132.598 170.828 132.397 170.68 132.199L170.825 132.116C170.968 132.309 171.124 132.506 171.281 132.7C171.388 132.826 171.503 132.958 171.617 133.087L171.505 133.209C171.387 133.076 171.265 132.941 171.15 132.805L171.151 132.802ZM172.063 133.796L172.154 133.648C172.444 133.94 172.748 134.221 173.055 134.481L173.001 134.658C172.68 134.387 172.365 134.098 172.064 133.793L172.063 133.796ZM170.209 131.544C169.96 131.185 169.73 130.825 169.525 130.472L169.71 130.446C169.908 130.786 170.131 131.136 170.373 131.482L170.212 131.545L170.209 131.544ZM173.607 135.146L173.638 134.95C173.948 135.185 174.268 135.402 174.582 135.594L174.585 135.816C174.257 135.615 173.926 135.388 173.604 135.145L173.607 135.146ZM169.152 129.79C168.962 129.424 168.796 129.058 168.657 128.701L168.873 128.744C169.007 129.085 169.169 129.438 169.349 129.79L169.152 129.79ZM175.201 136.163L175.174 135.926C175.486 136.088 175.799 136.232 176.104 136.345L176.169 136.597C175.852 136.478 175.529 136.33 175.206 136.161L175.201 136.163ZM168.419 128.036C168.31 127.685 168.223 127.34 168.167 127.01L168.405 127.123C168.462 127.439 168.542 127.77 168.648 128.109L168.422 128.037L168.419 128.036ZM176.75 136.794L176.662 136.534C176.955 136.616 177.246 136.672 177.516 136.703L177.637 136.97C177.353 136.938 177.056 136.88 176.75 136.794ZM168.089 126.403C168.065 126.094 168.068 125.793 168.096 125.511L168.337 125.684C168.309 125.955 168.307 126.241 168.329 126.543L168.088 126.407L168.089 126.403ZM178.157 136.993L178.019 136.724C178.275 136.718 178.52 136.689 178.744 136.628L178.912 136.891C178.678 136.953 178.424 136.986 178.158 136.989L178.157 136.993ZM168.181 125.008C168.24 124.755 168.329 124.518 168.433 124.301L168.661 124.518C168.557 124.724 168.473 124.954 168.417 125.198L168.181 125.008ZM179.334 136.746L179.15 136.489C179.35 136.398 179.539 136.278 179.702 136.135L179.716 136.125L179.922 136.367L179.907 136.381C179.735 136.529 179.543 136.651 179.334 136.746ZM168.663 123.926C168.773 123.773 168.903 123.634 169.043 123.51C169.073 123.482 169.104 123.459 169.133 123.435L169.334 123.68C169.306 123.704 169.274 123.727 169.246 123.751C169.111 123.87 168.986 124.003 168.881 124.154L168.66 123.925L168.663 123.926ZM179.993 135.827C180.13 135.654 180.243 135.454 180.334 135.237L180.564 135.446C180.47 135.674 180.352 135.879 180.209 136.058L179.993 135.827ZM169.68 123.459L169.489 123.203C169.691 123.095 169.911 123.01 170.148 122.953L170.315 123.217C170.088 123.269 169.875 123.352 169.681 123.456L169.68 123.459ZM180.478 134.804C180.537 134.562 180.574 134.298 180.588 134.019L180.829 134.18C180.816 134.47 180.779 134.746 180.716 134.998L180.481 134.805L180.478 134.804ZM170.764 123.147L170.616 122.878C170.874 122.854 171.151 122.862 171.434 122.897L171.551 123.162C171.278 123.13 171.015 123.124 170.764 123.147ZM180.58 133.471C180.56 133.174 180.517 132.859 180.452 132.536L180.69 132.638C180.759 132.973 180.805 133.3 180.821 133.611L180.58 133.471ZM172.078 123.257L171.98 122.994C172.281 123.064 172.597 123.165 172.912 123.291L172.971 123.542C172.668 123.42 172.365 123.323 172.074 123.256L172.078 123.257ZM180.302 131.922C180.206 131.585 180.087 131.242 179.946 130.899L180.161 130.938C180.307 131.298 180.432 131.654 180.529 132.001L180.297 131.927L180.302 131.922ZM173.552 123.805L173.518 123.566C173.84 123.728 174.172 123.918 174.502 124.134L174.497 124.35C174.182 124.142 173.862 123.959 173.555 123.806L173.552 123.805ZM179.656 130.243C179.489 129.896 179.299 129.541 179.093 129.195L179.275 129.165C179.488 129.524 179.688 129.893 179.861 130.257L179.656 130.243ZM175.086 124.766L175.115 124.565C175.435 124.803 175.758 125.068 176.079 125.351L176.013 125.522C175.706 125.251 175.391 124.995 175.086 124.766ZM178.684 128.546C178.455 128.204 178.208 127.864 177.949 127.538L178.088 127.443C178.356 127.782 178.614 128.133 178.853 128.489L178.689 128.543L178.684 128.546ZM176.577 126.044L176.662 125.891C176.959 126.181 177.261 126.494 177.558 126.821L177.446 126.947C177.159 126.631 176.866 126.327 176.576 126.047L176.577 126.044Z" fill="#FF5600"/>
<path d="M175.552 127.897C175.656 127.941 175.78 128.01 175.888 128.133C176.116 128.393 176.36 128.637 176.594 128.892C176.86 129.183 176.925 129.435 176.766 129.587C176.627 129.72 176.49 129.856 176.351 129.989C176.207 130.127 175.952 130.046 175.713 129.785C175.471 129.524 175.228 129.262 174.989 129.002C174.757 128.751 174.69 128.483 174.826 128.35C174.972 128.205 175.12 128.065 175.269 127.924C175.329 127.866 175.42 127.855 175.556 127.898L175.552 127.897Z" fill="white"/>
<path d="M175.49 131.506C175.463 131.384 175.481 131.29 175.542 131.228C175.688 131.084 175.84 130.944 175.985 130.803C176.11 130.681 176.382 130.764 176.604 131C176.839 131.252 177.07 131.514 177.309 131.763C177.408 131.868 177.488 131.967 177.534 132.085C177.596 132.241 177.589 132.357 177.518 132.429C177.37 132.581 177.218 132.731 177.062 132.873C176.93 132.997 176.67 132.91 176.448 132.673C176.198 132.402 175.948 132.131 175.694 131.859C175.591 131.745 175.525 131.624 175.488 131.502L175.49 131.506Z" fill="white"/>
<path d="M178.596 131.182C178.616 131.291 178.61 131.381 178.55 131.44C178.395 131.589 178.244 131.74 178.087 131.885C177.955 132.005 177.693 131.914 177.477 131.683C177.231 131.42 176.99 131.155 176.745 130.89C176.506 130.629 176.441 130.365 176.581 130.226C176.726 130.088 176.867 129.949 177.011 129.811C177.15 129.679 177.407 129.761 177.639 130.011C177.892 130.284 178.145 130.559 178.398 130.832C178.502 130.942 178.559 131.06 178.593 131.181L178.596 131.182Z" fill="white"/>
<path d="M176.369 133.094C176.391 133.182 176.378 133.252 176.333 133.293C176.194 133.428 176.054 133.564 175.91 133.699C175.821 133.784 175.64 133.73 175.485 133.563C175.239 133.301 174.994 133.038 174.753 132.77C174.613 132.615 174.565 132.423 174.646 132.342C174.788 132.2 174.932 132.061 175.08 131.924C175.168 131.842 175.349 131.896 175.498 132.058C175.742 132.316 175.983 132.581 176.226 132.842C176.301 132.922 176.349 133.007 176.369 133.094Z" fill="white"/>
<path d="M174.273 127.999C174.189 127.973 174.108 127.914 174.03 127.833C173.795 127.582 173.563 127.331 173.333 127.077C173.163 126.891 173.12 126.707 173.221 126.607C173.355 126.477 173.49 126.347 173.624 126.22C173.733 126.115 173.91 126.172 174.094 126.37C174.323 126.617 174.552 126.866 174.778 127.111C174.94 127.288 174.986 127.476 174.894 127.568C174.759 127.702 174.616 127.833 174.48 127.97C174.434 128.017 174.366 128.029 174.274 127.996L174.273 127.999Z" fill="white"/>
<path d="M172.469 127.895C172.451 127.838 172.466 127.802 172.492 127.774C172.586 127.682 172.679 127.586 172.776 127.499C172.835 127.445 172.935 127.476 173.037 127.583C173.196 127.755 173.356 127.928 173.516 128.1C173.617 128.21 173.64 128.309 173.58 128.368C173.485 128.459 173.39 128.55 173.296 128.642C173.237 128.697 173.142 128.67 173.044 128.562C172.882 128.388 172.72 128.211 172.557 128.038C172.514 127.991 172.48 127.939 172.468 127.888L172.469 127.895Z" fill="white"/>
<path d="M173.908 131.545C173.856 131.529 173.811 131.492 173.768 131.445C173.611 131.277 173.454 131.106 173.298 130.934C173.184 130.809 173.162 130.718 173.228 130.65C173.318 130.565 173.405 130.475 173.498 130.39C173.571 130.321 173.662 130.347 173.781 130.48C173.93 130.642 174.08 130.8 174.225 130.961C174.347 131.096 174.371 131.192 174.299 131.265C174.209 131.354 174.116 131.438 174.026 131.527C174 131.556 173.961 131.566 173.908 131.545Z" fill="white"/>
<path d="M175.617 130.435C175.48 130.572 175.34 130.708 175.197 130.84C175.099 130.93 174.919 130.873 174.752 130.698C174.541 130.472 174.332 130.25 174.125 130.022C174.011 129.897 173.898 129.802 173.765 129.775C173.678 129.758 173.632 129.795 173.59 129.84C173.494 129.946 173.461 130.009 173.227 129.743C173.151 129.656 173.072 129.576 172.995 129.492C172.908 129.394 172.888 129.318 172.939 129.268C173.004 129.204 173.071 129.148 173.133 129.083C173.172 129.036 173.274 129.072 173.339 129.149C173.403 129.217 173.463 129.288 173.531 129.357C173.588 129.412 173.646 129.468 173.714 129.489C173.833 129.527 173.916 129.51 173.978 129.445C174.098 129.317 174.228 129.204 174.353 129.081C174.453 128.984 174.628 129.036 174.8 129.217C175.042 129.471 175.278 129.73 175.511 129.989C175.667 130.164 175.71 130.347 175.618 130.443L175.617 130.435Z" fill="white"/>
<path d="M171.9 128.634C171.948 128.649 171.988 128.68 172.025 128.722C172.137 128.842 172.246 128.961 172.358 129.082C172.43 129.16 172.453 129.234 172.411 129.279C172.343 129.353 172.273 129.42 172.198 129.484C172.154 129.522 172.078 129.494 172.006 129.415C171.888 129.293 171.774 129.168 171.661 129.04C171.592 128.963 171.572 128.89 171.614 128.844C171.681 128.774 171.755 128.705 171.828 128.64C171.847 128.624 171.878 128.626 171.903 128.635L171.9 128.634Z" fill="white"/>
<defs>
<linearGradient id="paint0_linear_4001_4509" x1="119.225" y1="184.339" x2="140.281" y2="118.555" gradientUnits="userSpaceOnUse">
<stop stop-color="#F34500"/>
<stop offset="1" stop-color="#F34500" stop-opacity="0"/>
</linearGradient>
<linearGradient id="paint1_linear_4001_4509" x1="121.948" y1="179.552" x2="123.192" y2="163.08" gradientUnits="userSpaceOnUse">
<stop stop-color="#FFDD00"/>
<stop offset="0.51" stop-color="#FFCF00"/>
<stop offset="1" stop-color="#FFBD00"/>
</linearGradient>
<linearGradient id="paint2_linear_4001_4509" x1="170.635" y1="142.539" x2="191.691" y2="76.755" gradientUnits="userSpaceOnUse">
<stop stop-color="#F34500"/>
<stop offset="1" stop-color="#F34500" stop-opacity="0"/>
</linearGradient>
<linearGradient id="paint3_linear_4001_4509" x1="173.359" y1="137.751" x2="174.602" y2="121.279" gradientUnits="userSpaceOnUse">
<stop stop-color="#FFDD00"/>
<stop offset="0.51" stop-color="#FFCF00"/>
<stop offset="1" stop-color="#FFBD00"/>
</linearGradient>
</defs>
</svg>
