<svg width="287" height="135" viewBox="0 0 287 135" fill="none" xmlns="http://www.w3.org/2000/svg">
<mask id="mask0_5203_8323" style="mask-type:alpha" maskUnits="userSpaceOnUse" x="0" y="0" width="379" height="121">
<mask id="mask1_5203_8323" style="mask-type:luminance" maskUnits="userSpaceOnUse" x="0" y="0" width="379" height="135">
<path d="M378.522 0L0 0L0 135L378.522 135V0Z" fill="white"/>
</mask>
<g mask="url(#mask1_5203_8323)">
<g style="mix-blend-mode:color-dodge">
<path d="M378.742 71.9651C345.903 70.6199 312.554 69.6094 279.625 68.962L279.552 68.9606L279.5 68.9094C275.588 65.0515 271.574 61.1059 267.568 57.1815L267.824 56.9207C271.813 60.8283 275.809 64.7563 279.705 68.5982C312.613 69.2455 345.938 70.2553 378.757 71.6005L378.742 71.9658L378.742 71.9651Z" fill="url(#paint0_radial_5203_8323)"/>
<path d="M242.3 21.6535L242.047 21.3897C250.661 13.1573 258.197 5.93758 265.086 -0.682983L265.139 -0.734131L265.213 -0.734131C303.314 -0.591651 341.513 -0.344685 378.749 0.000189602L378.745 0.365523C341.536 0.0206482 303.361 -0.226318 265.285 -0.368798C258.411 6.23788 250.891 13.4415 242.299 21.6527L242.3 21.6535Z" fill="url(#paint1_radial_5203_8323)"/>
<path d="M254.106 29.5608H254.032C246.603 29.5023 239.102 29.4533 231.736 29.4146L231.739 29.0493C239.08 29.0873 246.555 29.1362 253.961 29.194C259.498 23.9076 265.036 18.6088 270.42 13.4459L270.473 13.3948H270.547C305.998 13.6352 342.402 14.0436 378.749 14.6106L378.743 14.9759C342.422 14.4097 306.045 14.0005 270.619 13.7608C265.233 18.9245 259.696 24.2232 254.159 29.5096L254.106 29.5608Z" fill="url(#paint2_radial_5203_8323)"/>
<path d="M290.966 91.5082L290.891 91.506C285.76 91.3657 280.552 91.2334 275.408 91.1129L275.336 91.1114L275.284 91.0603C269.116 84.957 262.642 78.5922 255.492 71.6012L255.748 71.3403C262.878 78.3116 269.337 84.6611 275.49 90.7497C280.584 90.8688 285.743 91.0004 290.825 91.1392C293.052 89.04 295.278 86.9393 297.504 84.8387L297.559 84.7868L297.634 84.789C324.508 85.532 351.801 86.5674 378.756 87.8658L378.738 88.2304C351.81 86.9327 324.546 85.8981 297.699 85.1558C295.473 87.2564 293.247 89.3571 291.02 91.4563L290.966 91.5082H290.966Z" fill="url(#paint3_radial_5203_8323)"/>
<path d="M126.425 46.5559L126.371 46.5048C123.229 43.5134 120.12 40.5499 117.126 37.6944C78.3851 38.0912 38.9831 38.8196 0.00559367 39.8608L-0.00390625 39.4955C38.9991 38.4536 78.4311 37.7244 117.197 37.3284H117.271L117.325 37.3788C120.318 40.2335 123.429 43.1971 126.57 46.1884C147.331 45.9765 168.282 45.8706 189.267 45.8706C210.251 45.8706 230.997 45.9751 251.775 46.184C255.188 42.934 258.212 40.0515 261.02 37.3737L261.074 37.3225L261.148 37.3225C300.291 37.7258 339.86 38.4565 378.757 39.4948L378.747 39.8601C339.876 38.8226 300.336 38.0926 261.219 37.6893C258.412 40.3665 255.388 43.2489 251.974 46.4997L251.921 46.5508H251.847C231.047 46.3404 210.135 46.2359 189.267 46.2359C168.398 46.2359 147.288 46.3419 126.501 46.5545H126.428L126.425 46.5559Z" fill="url(#paint4_radial_5203_8323)"/>
<path d="M378.744 58.539C352.439 57.6198 325.832 56.8811 299.661 56.3441L299.587 56.3426L299.536 56.2915C294.417 51.2148 289.192 46.0571 283.562 40.5274C270.263 40.3447 257.161 40.2008 244.615 40.0978C240.686 43.8439 236.754 47.5878 232.823 51.3317L231.816 52.2911H231.743C203.498 52.0807 174.851 52.0814 146.6 52.2933H146.526L146.473 52.2429C142.223 48.1965 137.975 44.1493 133.728 40.1007C120.818 40.2074 107.715 40.3528 94.7808 40.5325C89.4155 45.8028 84.0414 51.1074 78.807 56.2995L78.7551 56.3507L78.682 56.3521C52.5185 56.8921 26.0488 57.6279 0.0065636 58.539L-0.00585937 58.1737C26.0137 57.2633 52.46 56.5282 78.6016 55.9883C83.8368 50.7954 89.2116 45.4901 94.5769 40.2205L94.6287 40.1694H94.7018C107.685 39.9882 120.839 39.842 133.798 39.7346H133.871L133.925 39.785C138.172 43.8336 142.421 47.8808 146.67 51.9272C160.84 51.8213 175.111 51.7679 189.38 51.7679C203.648 51.7679 217.638 51.8198 231.67 51.9243L232.571 51.0672C236.52 47.3058 240.469 43.545 244.416 39.7821L244.469 39.731H244.543C257.134 39.8347 270.288 39.9794 283.639 40.1628H283.712L283.763 40.2154C289.395 45.7473 294.621 50.9043 299.739 55.981C325.888 56.518 352.472 57.256 378.754 58.1744L378.742 58.5398L378.744 58.539Z" fill="url(#paint5_radial_5203_8323)"/>
<path d="M378.744 78.7398C343.46 77.182 307.224 76.0392 271.04 75.3443L270.967 75.3429L270.915 75.2917C265.146 69.613 259.043 63.6376 252.257 57.0273C231.495 56.7825 210.533 56.6598 189.527 56.6598C168.521 56.6598 147.187 56.784 126.089 57.0324C119.648 63.3066 113.371 69.4523 107.431 75.2998L107.379 75.3509L107.306 75.3524C71.5637 76.0363 35.4647 77.1761 0.0102174 78.7398L-0.00585937 78.3744C35.4274 76.8115 71.5045 75.6717 107.226 74.9878C113.167 69.1395 119.445 62.9932 125.886 56.719L125.939 56.6678H126.012C147.132 56.4179 168.356 56.2937 189.526 56.2937C210.697 56.2937 231.545 56.4165 252.336 56.6627H252.409L252.461 56.7146C259.246 63.3264 265.351 69.3017 271.12 74.9805C307.282 75.6753 343.498 76.8174 378.76 78.3744L378.744 78.7398Z" fill="url(#paint6_radial_5203_8323)"/>
<path d="M0.00948666 71.9651L-0.00585937 71.5997C32.5803 70.2633 65.768 69.2565 98.6384 68.6055C102.452 64.8425 106.45 60.913 110.519 56.9258L110.775 57.1866C106.687 61.1914 102.672 65.1385 98.843 68.9167L98.7912 68.9679L98.7181 68.9693C65.8272 69.6196 32.6169 70.628 0.00875589 71.9643L0.00948666 71.9651Z" fill="url(#paint7_radial_5203_8323)"/>
<path d="M144.499 10.2267L144.445 10.1755C132.005 -1.72704 121.934 -11.3981 112.759 -20.2516C90.3725 -20.2494 67.9856 -20.2487 45.5987 -20.2472C30.398 -20.2472 15.1974 -20.2458 -0.00390625 -20.245L-0.00390625 -20.6104C15.1967 -20.6111 30.3973 -20.6118 45.5987 -20.6126C68.0097 -20.6133 90.4215 -20.614 112.833 -20.6169H112.906L112.96 -20.5658C122.135 -11.7109 132.204 -2.04196 144.644 9.86059C159.553 9.81163 174.537 9.78679 189.479 9.78679C204.421 9.78679 219.056 9.8109 233.69 9.85913C245.823 -1.75042 255.893 -11.4193 265.374 -20.5658L265.428 -20.6169H265.501C287.18 -20.6169 308.858 -20.6155 330.537 -20.6133C346.607 -20.6118 362.676 -20.6111 378.746 -20.6104V-20.245C362.676 -20.245 346.607 -20.2465 330.537 -20.248C308.884 -20.2494 287.229 -20.2516 265.575 -20.2516C256.095 -11.1066 246.024 -1.43624 233.889 10.174L233.836 10.2252H233.762C204.312 10.1273 174.304 10.128 144.572 10.2267H144.498H144.499Z" fill="url(#paint8_radial_5203_8323)"/>
<path d="M143.628 20.6737L143.575 20.6226C133.361 10.8616 125.024 2.87322 117.344 -4.50943C78.8974 -4.40129 39.4201 -4.20182 -0.000983195 -3.91539L-0.00390625 -4.28073C39.442 -4.56715 78.9478 -4.76735 117.416 -4.87476H117.49L117.543 -4.82361C125.225 2.5605 133.561 10.5474 143.774 20.3076C173.8 20.1717 204.342 20.171 234.562 20.3054C242.285 12.925 251.436 4.17235 260.792 -4.82507L260.846 -4.87622H260.92C299.69 -4.76808 339.333 -4.56788 378.748 -4.28073L378.745 -3.91539C339.355 -4.20255 299.739 -4.40275 260.993 -4.51016C251.632 4.49092 242.481 13.2436 234.761 20.6211L234.708 20.6722H234.634C219.573 20.605 204.426 20.5714 189.307 20.5714C174.188 20.5714 158.809 20.6057 143.701 20.6744H143.627L143.628 20.6737Z" fill="url(#paint9_radial_5203_8323)"/>
<path d="M136.037 21.6557C127.525 13.5204 120.006 6.31534 113.052 -0.366604C75.112 -0.221201 37.0743 0.0250345 -0.000252432 0.365525L-0.00390625 0.000191808C37.0962 -0.341029 75.158 -0.587263 113.124 -0.732666H113.198L113.251 -0.681521C120.221 6.01503 127.756 13.2355 136.289 21.3919L136.037 21.6557Z" fill="url(#paint10_radial_5203_8323)"/>
<path d="M119.275 34.5929L119.222 34.5418C116.423 31.8697 113.413 28.996 110.361 26.077C74.1445 26.4007 37.0166 26.9633 0.00413215 27.7502L-0.00390625 27.3849C37.0348 26.5972 74.1905 26.0339 110.432 25.7109H110.507L110.56 25.7613C113.611 28.6789 116.62 31.5526 119.42 34.2254C131.62 34.1114 144.226 34.0252 156.892 33.9682C158.445 32.4732 159.997 30.9783 161.551 29.4841L161.604 29.4329H161.677C180.055 29.3716 198.556 29.3708 216.665 29.4315H216.738L216.79 29.4826C218.344 30.9768 219.896 32.471 221.449 33.966C234.033 34.0215 246.64 34.107 258.921 34.221C261.737 31.5329 264.718 28.6862 267.781 25.757L267.836 25.7058H267.91C304.564 26.0331 341.857 26.598 378.754 27.3842L378.746 27.7495C341.875 26.964 304.609 26.3992 267.981 26.0726C264.917 29.0026 261.936 31.85 259.12 34.5366L259.066 34.5878H258.992C246.664 34.4731 234.008 34.3869 221.374 34.3313H221.301L221.249 34.2802C219.696 32.7852 218.144 31.291 216.59 29.7968C198.53 29.7369 180.08 29.7376 161.751 29.7983C160.198 31.2925 158.646 32.7874 157.093 34.2816L157.04 34.3321H156.967C144.252 34.389 131.595 34.476 119.349 34.59H119.275V34.5929Z" fill="url(#paint11_radial_5203_8323)"/>
<path d="M124.232 29.5637L124.178 29.5125C118.547 24.1356 113.01 18.8368 107.719 13.7638C71.9376 14.0078 35.6983 14.4155 0.00193986 14.9759L-0.00390625 14.6106C35.7173 14.0502 71.9843 13.6425 107.79 13.3977H107.865L107.918 13.4489C113.209 18.5219 118.747 23.8199 124.377 29.1976C132.231 29.1363 139.5 29.088 146.6 29.0522L146.602 29.4176C139.481 29.4541 132.188 29.5016 124.306 29.5637H124.232H124.232Z" fill="url(#paint12_radial_5203_8323)"/>
<path d="M378.739 110.479C331.999 107.769 284.593 106.038 237.837 105.335H237.764L237.712 105.283C230.714 98.4607 223.426 91.3944 215.435 83.6837C198.143 83.5697 180.47 83.5705 162.907 83.6866C154.994 91.3236 147.707 98.3906 140.631 105.289L140.579 105.341H140.506C93.878 106.046 46.6093 107.776 0.0114265 110.48L-0.00976562 110.116C46.5676 107.412 93.8195 105.683 140.428 104.978C147.504 98.0793 154.792 91.0116 162.706 83.3732L162.759 83.3228H162.832C180.446 83.2051 198.17 83.2044 215.511 83.3198H215.584L215.637 83.371C223.63 91.0832 230.918 98.1502 237.916 104.972C284.655 105.675 332.038 107.406 378.761 110.116L378.74 110.48L378.739 110.479Z" fill="url(#paint13_radial_5203_8323)"/>
<path d="M378.738 120.889C342.166 118.601 305.167 116.953 268.77 115.99L268.697 115.988L268.646 115.937C254.358 101.781 238.944 86.7207 221.523 69.8942C199.973 69.7444 178.204 69.7452 156.818 69.8971C139.228 86.8895 123.814 101.953 109.695 115.948L109.644 115.999L109.571 116.001C73.3116 116.97 36.4497 118.614 0.0109349 120.89L-0.0117187 120.525C36.4073 118.25 73.2488 116.606 109.49 115.638C123.609 101.642 139.026 86.5768 156.617 69.5844L156.67 69.534H156.743C178.178 69.3813 199.999 69.3798 221.599 69.5304H221.672L221.725 69.5815C239.146 86.4095 254.563 101.472 268.852 115.628C305.23 116.591 342.209 118.239 378.761 120.526L378.739 120.89L378.738 120.889Z" fill="url(#paint14_radial_5203_8323)"/>
<path d="M137.083 98.6058L136.828 98.3442C144.052 91.2977 151.685 83.8909 159.515 76.3315L159.567 76.2803H159.64C178.972 76.1429 198.842 76.1415 218.698 76.2767H218.772L218.824 76.3278C226.938 84.1613 234.359 91.3605 241.511 98.3376L241.256 98.5992C234.12 91.6374 226.716 84.455 218.623 76.642C198.819 76.5075 179 76.5083 159.716 76.6449C151.905 84.1868 144.291 91.5753 137.084 98.6058H137.083Z" fill="url(#paint15_radial_5203_8323)"/>
<path d="M378.739 99.9605C342.454 98.0228 305.56 96.6214 269.082 95.7942L269.009 95.7928L268.957 95.7416C258.487 85.4078 247.522 74.6882 235.439 62.972C204.758 62.6878 173.624 62.6892 142.901 62.9757C130.55 74.952 119.586 85.6738 109.382 95.7511L109.33 95.8023L109.258 95.8037C72.9689 96.6272 36.2122 98.0257 0.00801186 99.9605L-0.0117187 99.5959C36.172 97.6618 72.9082 96.2633 109.177 95.4399C119.38 85.3625 130.347 74.64 142.698 62.6622L142.751 62.6111H142.824C173.598 62.3232 204.783 62.3217 235.515 62.6067H235.588L235.64 62.6578C247.726 74.3755 258.692 85.0958 269.162 95.4296C305.62 96.2568 342.493 97.6582 378.758 99.5944L378.739 99.959L378.739 99.9605Z" fill="url(#paint16_radial_5203_8323)"/>
<path d="M87.372 91.5191L87.3172 91.4673C85.0898 89.3681 82.8639 87.2681 80.6387 85.1667C53.9425 85.9106 26.8166 86.9415 0.0077727 88.2304L-0.00976562 87.8658C26.8261 86.5755 53.982 85.5438 80.7045 84.7999L80.7798 84.7977L80.8346 84.8496C83.0598 86.951 85.2857 89.051 87.513 91.1502C92.3697 91.0164 97.3878 90.8886 102.849 90.7593C109.238 84.4405 115.88 77.909 122.591 71.3469L122.847 71.6078C116.118 78.1874 109.459 84.7356 103.055 91.0698L103.003 91.1209L102.931 91.1224C97.4142 91.2532 92.35 91.3818 87.4487 91.517L87.3735 91.5191H87.372Z" fill="url(#paint17_radial_5203_8323)"/>
</g>
</g>
</mask>
<g mask="url(#mask0_5203_8323)">
<rect x="95" y="-3" width="188" height="145" fill="url(#paint18_radial_5203_8323)"/>
</g>
<defs>
<radialGradient id="paint0_radial_5203_8323" cx="0" cy="0" r="1" gradientUnits="userSpaceOnUse" gradientTransform="translate(323.163 64.4429) scale(39.6695 39.6642)">
<stop stop-color="white"/>
<stop offset="1"/>
</radialGradient>
<radialGradient id="paint1_radial_5203_8323" cx="0" cy="0" r="1" gradientUnits="userSpaceOnUse" gradientTransform="translate(310.398 10.4597) scale(48.975 48.9685)">
<stop stop-color="white"/>
<stop offset="1"/>
</radialGradient>
<radialGradient id="paint2_radial_5203_8323" cx="0" cy="0" r="1" gradientUnits="userSpaceOnUse" gradientTransform="translate(305.243 21.4774) scale(52.2905 52.2835)">
<stop stop-color="white"/>
<stop offset="1"/>
</radialGradient>
<radialGradient id="paint3_radial_5203_8323" cx="0" cy="0" r="1" gradientUnits="userSpaceOnUse" gradientTransform="translate(317.125 81.4243) scale(44.16 44.1541)">
<stop stop-color="white"/>
<stop offset="1"/>
</radialGradient>
<radialGradient id="paint4_radial_5203_8323" cx="0" cy="0" r="1" gradientUnits="userSpaceOnUse" gradientTransform="translate(189.376 41.9396) scale(133.951 133.933)">
<stop stop-color="white"/>
<stop offset="1"/>
</radialGradient>
<radialGradient id="paint5_radial_5203_8323" cx="0" cy="0" r="1" gradientUnits="userSpaceOnUse" gradientTransform="translate(189.375 49.1354) scale(134.078 134.06)">
<stop stop-color="white"/>
<stop offset="1"/>
</radialGradient>
<radialGradient id="paint6_radial_5203_8323" cx="0" cy="0" r="1" gradientUnits="userSpaceOnUse" gradientTransform="translate(189.377 67.5175) scale(134.149 134.131)">
<stop stop-color="white"/>
<stop offset="1"/>
</radialGradient>
<radialGradient id="paint7_radial_5203_8323" cx="0" cy="0" r="1" gradientUnits="userSpaceOnUse" gradientTransform="translate(55.3845 64.4458) scale(39.5263 39.521)">
<stop stop-color="white"/>
<stop offset="1"/>
</radialGradient>
<radialGradient id="paint8_radial_5203_8323" cx="0" cy="0" r="1" gradientUnits="userSpaceOnUse" gradientTransform="translate(189.372 -5.19478) scale(134.352 134.334)">
<stop stop-color="white"/>
<stop offset="1"/>
</radialGradient>
<radialGradient id="paint9_radial_5203_8323" cx="0" cy="0" r="1" gradientUnits="userSpaceOnUse" gradientTransform="translate(189.373 7.89874) scale(134.213 134.196)">
<stop stop-color="white"/>
<stop offset="1"/>
</radialGradient>
<radialGradient id="paint10_radial_5203_8323" cx="0" cy="0" r="1" gradientUnits="userSpaceOnUse" gradientTransform="translate(68.1427 10.4611) scale(48.8333 48.8267)">
<stop stop-color="white"/>
<stop offset="1"/>
</radialGradient>
<radialGradient id="paint11_radial_5203_8323" cx="0" cy="0" r="1" gradientUnits="userSpaceOnUse" gradientTransform="translate(189.374 30.1497) scale(133.947 133.93)">
<stop stop-color="white"/>
<stop offset="1"/>
</radialGradient>
<radialGradient id="paint12_radial_5203_8323" cx="0" cy="0" r="1" gradientUnits="userSpaceOnUse" gradientTransform="translate(73.2982 21.4811) scale(52.1473 52.1403)">
<stop stop-color="white"/>
<stop offset="1"/>
</radialGradient>
<radialGradient id="paint13_radial_5203_8323" cx="0" cy="0" r="1" gradientUnits="userSpaceOnUse" gradientTransform="translate(189.375 96.8562) scale(134.262 134.244)">
<stop stop-color="white"/>
<stop offset="1"/>
</radialGradient>
<radialGradient id="paint14_radial_5203_8323" cx="0" cy="0" r="1" gradientUnits="userSpaceOnUse" gradientTransform="translate(189.374 95.1526) scale(135.147 135.129)">
<stop stop-color="white"/>
<stop offset="1"/>
</radialGradient>
<radialGradient id="paint15_radial_5203_8323" cx="0" cy="0" r="1" gradientUnits="userSpaceOnUse" gradientTransform="translate(189.169 87.3908) scale(37.8506 37.8456)">
<stop stop-color="white"/>
<stop offset="1"/>
</radialGradient>
<radialGradient id="paint16_radial_5203_8323" cx="0" cy="0" r="1" gradientUnits="userSpaceOnUse" gradientTransform="translate(189.374 81.1773) scale(134.572 134.554)">
<stop stop-color="white"/>
<stop offset="1"/>
</radialGradient>
<radialGradient id="paint17_radial_5203_8323" cx="0" cy="0" r="1" gradientUnits="userSpaceOnUse" gradientTransform="translate(61.4182 81.433) scale(44.0183 44.0124)">
<stop stop-color="white"/>
<stop offset="1"/>
</radialGradient>
<radialGradient id="paint18_radial_5203_8323" cx="0" cy="0" r="1" gradientUnits="userSpaceOnUse" gradientTransform="translate(189 46.5) rotate(90) scale(63.5 82.331)">
<stop stop-color="white"/>
<stop offset="1" stop-color="white" stop-opacity="0"/>
</radialGradient>
</defs>
</svg>
