<svg width="32" height="32" viewBox="0 0 32 32" fill="none" xmlns="http://www.w3.org/2000/svg">
<g id="down 1">
<g id="16">
<path id="Vector" d="M16.0009 21.3334C15.8254 21.3344 15.6515 21.3008 15.489 21.2344C15.3266 21.1681 15.1788 21.0703 15.0542 20.9467L7.05423 12.9467C6.80316 12.6956 6.66211 12.3551 6.66211 12C6.66211 11.645 6.80316 11.3044 7.05423 11.0534C7.3053 10.8023 7.64583 10.6613 8.0009 10.6613C8.35597 10.6613 8.69649 10.8023 8.94757 11.0534L16.0009 18.12L23.0542 11.0667C23.3093 10.8483 23.6374 10.7341 23.973 10.7471C24.3085 10.7601 24.6269 10.8992 24.8643 11.1366C25.1018 11.3741 25.2409 11.6924 25.2538 12.028C25.2668 12.3635 25.1527 12.6916 24.9342 12.9467L16.9342 20.9467C16.6859 21.193 16.3507 21.3319 16.0009 21.3334Z" fill="white"/>
</g>
</g>
</svg>
