<svg width="165" height="85" viewBox="0 0 165 85" fill="none" xmlns="http://www.w3.org/2000/svg">
<path opacity="0.37" d="M248.96 84.16C265.78 84.16 272.5 62.15 258.37 53.01C252.43 49.17 245.35 46.93 237.74 46.93C227.34 46.93 217.92 51.11 211.06 57.87C206.37 42.18 191.84 30.75 174.62 30.75C173.03 30.75 171.46 30.86 169.92 31.05C166.64 13.38 151.16 0 132.54 0C111.53 0 94.5096 17.03 94.5096 38.03C94.5096 38.08 94.5096 38.13 94.5096 38.18C90.2396 36.52 85.5996 35.6 80.7496 35.6C63.9896 35.6 49.7696 46.45 44.7096 61.5C37.8096 54.51 28.2296 50.17 17.6296 50.17C17.0196 50.17 16.4096 50.18 15.7996 50.21C-6.04035 51.25 -4.86036 84.15 16.9996 84.15H248.94L248.96 84.16Z" fill="white" fill-opacity="0.16"/>
</svg>
