<svg width="133" height="71" viewBox="0 0 133 71" fill="none" xmlns="http://www.w3.org/2000/svg">
<path opacity="0.37" d="M118.621 71C132.784 71 138.442 52.4317 126.544 44.7209C121.543 41.4813 115.582 39.5916 109.174 39.5916C100.418 39.5916 92.486 43.118 86.7099 48.8209C82.761 35.5844 70.5269 25.9417 56.0278 25.9417C54.6891 25.9417 53.3672 26.0345 52.0705 26.1947C49.3088 11.2878 36.2748 0 20.5969 0C2.90675 0 -11.4239 14.367 -11.4239 32.0833C-11.4239 32.1255 -11.4239 32.1677 -11.4239 32.2098C-15.0192 30.8094 -18.926 30.0333 -23.0097 30.0333C-37.1214 30.0333 -49.0945 39.1867 -53.355 51.8833C-59.1647 45.9863 -67.2309 42.325 -76.156 42.325C-76.6696 42.325 -77.1833 42.3334 -77.6969 42.3587C-96.0859 43.2361 -95.0924 70.9916 -76.6865 70.9916H118.604L118.621 71Z" fill="white" fill-opacity="0.16"/>
</svg>
