<svg width="121" height="208" viewBox="0 0 121 208" fill="none" xmlns="http://www.w3.org/2000/svg">
<path style="mix-blend-mode:screen" opacity="0.5" d="M21.6426 71.264L59.6595 192.064L81.1451 197.472L39.536 65.2576L21.6426 71.264Z" fill="url(#paint0_linear_4001_4513)"/>
<path d="M81.1284 197.455L80.7004 199.154C79.8964 202.337 74.4175 203.702 68.4653 202.202C62.51 200.703 58.3346 196.907 59.1375 193.721L59.5655 192.022C58.7615 195.204 62.9412 199.002 68.8933 200.502C74.8487 202.001 80.3276 200.636 81.1316 197.454L81.1284 197.455Z" fill="#B59101"/>
<path d="M81.132 197.46C80.328 200.642 74.8496 202.007 68.898 200.507C62.9431 199.008 58.7681 195.213 59.5709 192.027C60.3749 188.845 65.8533 187.48 71.8049 188.98C77.7598 190.479 81.9348 194.274 81.132 197.46Z" fill="#FFD847"/>
<path d="M68.9161 200.413C62.99 198.919 58.8269 195.151 59.5775 191.979C59.5721 191.996 59.5689 192.008 59.5635 192.025C58.7594 195.207 62.9362 199.007 68.8922 200.506C74.8482 202.006 80.3277 200.64 81.1286 197.459C81.1308 197.443 81.133 197.428 81.1384 197.411C80.2959 200.562 74.8421 201.908 68.9161 200.413Z" fill="url(#paint1_linear_4001_4513)"/>
<path d="M79.7974 197.123C79.0931 199.913 74.2949 201.106 69.0801 199.792C63.8652 198.478 60.2047 195.153 60.9089 192.363C61.6132 189.573 66.4114 188.38 71.6262 189.695C76.8411 191.009 80.5016 194.333 79.7974 197.123Z" fill="#FF5600"/>
<path d="M79.4108 197.023C78.7369 199.696 74.1344 200.845 69.131 199.582C64.1286 198.322 60.6172 195.133 61.2943 192.459C61.9683 189.786 66.5707 188.637 71.5742 189.9C76.5766 191.16 80.0879 194.349 79.4108 197.023Z" fill="#FFCC02"/>
<path d="M69.2644 199.053C69.0157 198.984 68.7733 198.914 68.5406 198.84L68.6127 198.687C68.838 198.759 69.076 198.827 69.3131 198.892C69.4711 198.932 69.6398 198.971 69.8042 199.009L69.7823 199.175C69.6104 199.136 69.4352 199.099 69.2655 199.056L69.2644 199.053ZM70.5673 199.322L70.5582 199.148C70.9588 199.213 71.3647 199.262 71.7611 199.292L71.8171 199.469C71.4026 199.438 70.9828 199.39 70.5662 199.319L70.5673 199.322ZM67.7891 198.586C67.3846 198.44 66.994 198.283 66.6291 198.117L66.7653 197.986C67.1174 198.145 67.4962 198.299 67.888 198.438L67.7923 198.585L67.7891 198.586ZM72.5853 199.508L72.5005 199.329C72.8862 199.337 73.2689 199.323 73.6323 199.294L73.7599 199.473C73.3794 199.504 72.9818 199.515 72.5821 199.509L72.5853 199.508ZM65.941 197.781C65.5804 197.595 65.2402 197.395 64.9256 197.186L65.1269 197.093C65.4276 197.292 65.7582 197.484 66.1027 197.664L65.941 197.781ZM74.458 199.391L74.3026 199.214C74.648 199.161 74.9849 199.092 75.2972 199.003L75.4922 199.17C75.166 199.261 74.8195 199.333 74.4602 199.386L74.458 199.391ZM64.3585 196.785C64.0718 196.563 63.8076 196.334 63.5765 196.097L63.8342 196.047C64.0578 196.272 64.3093 196.494 64.5864 196.708L64.3617 196.784L64.3585 196.785ZM76.0763 198.986L75.8589 198.826C76.1446 198.719 76.4133 198.592 76.651 198.457L76.8995 198.603C76.65 198.745 76.3749 198.875 76.0763 198.986ZM63.1719 195.648C62.9793 195.41 62.8124 195.162 62.6775 194.916L62.9714 194.913C63.0999 195.151 63.2594 195.386 63.4467 195.619L63.173 195.652L63.1719 195.648ZM77.3365 198.312L77.073 198.175C77.2787 198.017 77.4631 197.848 77.6112 197.666L77.8961 197.781C77.7395 197.97 77.5508 198.148 77.3354 198.309L77.3365 198.312ZM62.4643 194.455C62.37 194.213 62.31 193.967 62.2734 193.728L62.581 193.769C62.6112 193.999 62.6724 194.237 62.7635 194.469L62.4643 194.455ZM78.1592 197.412L77.8646 197.311C77.9775 197.118 78.0637 196.908 78.1168 196.694L78.1222 196.678L78.4265 196.753L78.4222 196.773C78.3648 196.996 78.2764 197.21 78.1592 197.412ZM62.2503 193.284C62.2542 193.095 62.2826 192.904 62.3271 192.719C62.3358 192.679 62.3487 192.641 62.3585 192.605L62.6606 192.685C62.6509 192.721 62.6379 192.759 62.6282 192.796C62.5848 192.973 62.5575 193.156 62.5558 193.341L62.2471 193.285L62.2503 193.284ZM78.1813 196.27C78.196 196.047 78.1765 195.817 78.1281 195.585L78.4336 195.62C78.4852 195.861 78.5036 196.099 78.4879 196.33L78.1813 196.27ZM62.819 192.299L62.5191 192.204C62.6235 191.995 62.7556 191.796 62.9165 191.609L63.2015 191.724C63.0448 191.902 62.9181 192.096 62.818 192.296L62.819 192.299ZM78.0035 195.147C77.9156 194.914 77.7979 194.676 77.6523 194.44L77.9398 194.429C78.0917 194.673 78.2159 194.92 78.307 195.163L78.0068 195.145L78.0035 195.147ZM63.5285 191.4L63.2565 191.269C63.4537 191.096 63.684 190.938 63.9346 190.798L64.1798 190.945C63.9389 191.081 63.7204 191.232 63.5285 191.4ZM77.3385 193.998C77.1555 193.767 76.9436 193.535 76.7093 193.31L76.9606 193.252C77.2046 193.485 77.426 193.725 77.6133 193.969L77.3385 193.998ZM64.6626 190.71L64.4355 190.553C64.7202 190.432 65.0348 190.326 65.3631 190.242L65.5517 190.412C65.2362 190.492 64.9345 190.593 64.6594 190.711L64.6626 190.71ZM76.2416 192.898C75.9741 192.681 75.6841 192.471 75.377 192.274L75.574 192.179C75.895 192.385 76.1977 192.602 76.4716 192.828L76.2405 192.906L76.2416 192.898ZM66.1741 190.281L66.0123 190.106C66.3662 190.047 66.7436 190.005 67.1348 189.985L67.2517 190.164C66.8776 190.182 66.5142 190.223 66.1773 190.28L66.1741 190.281ZM74.7724 191.911C74.4406 191.727 74.0864 191.55 73.7236 191.39L73.8556 191.257C74.2312 191.423 74.6013 191.606 74.9469 191.801L74.7724 191.911ZM67.9657 190.154L67.8765 189.973C68.2719 189.978 68.6843 190.002 69.1052 190.042L69.1474 190.221C68.7446 190.182 68.3439 190.161 67.9657 190.154ZM73.0257 191.103C72.6469 190.96 72.254 190.829 71.8601 190.717L71.9194 190.556C72.3294 190.674 72.7371 190.807 73.132 190.956L73.0279 191.098L73.0257 191.103ZM69.9005 190.312L69.884 190.137C70.2899 190.197 70.7117 190.273 71.1378 190.364L71.1169 190.533C70.7058 190.445 70.2957 190.372 69.9015 190.316L69.9005 190.312Z" fill="#FF5600"/>
<path d="M70.1087 192.427C70.2177 192.401 70.3577 192.384 70.5147 192.42C70.8478 192.497 71.1841 192.551 71.5183 192.621C71.8984 192.7 72.0934 192.868 72.049 193.086C72.01 193.277 71.9752 193.47 71.9362 193.66C71.8961 193.859 71.6427 193.943 71.301 193.873C70.9561 193.803 70.6113 193.734 70.2696 193.663C69.9397 193.596 69.734 193.417 69.7698 193.228C69.8078 193.023 69.8501 192.82 69.8923 192.618C69.9086 192.535 69.9771 192.471 70.1119 192.426L70.1087 192.427Z" fill="white"/>
<path d="M72.0733 195.409C71.9827 195.324 71.9445 195.237 71.9597 195.151C71.9977 194.946 72.0432 194.742 72.0822 194.54C72.1159 194.366 72.3843 194.273 72.6982 194.334C73.0314 194.4 73.3677 194.476 73.7029 194.538C73.8428 194.565 73.9634 194.599 74.0669 194.667C74.2055 194.758 74.265 194.856 74.2476 194.958C74.2118 195.17 74.1727 195.383 74.1251 195.591C74.0861 195.77 73.8252 195.854 73.5112 195.793C73.1546 195.72 72.798 195.647 72.4382 195.575C72.2898 195.543 72.1681 195.484 72.069 195.406L72.0733 195.409Z" fill="white"/>
<path d="M74.4299 193.296C74.5077 193.374 74.5534 193.451 74.5372 193.534C74.4949 193.748 74.4558 193.961 74.4092 194.172C74.3692 194.348 74.104 194.43 73.7976 194.369C73.4495 194.301 73.1035 194.228 72.7544 194.157C72.4127 194.086 72.2113 193.909 72.2482 193.712C72.2883 193.514 72.3253 193.317 72.3654 193.118C72.4044 192.928 72.661 192.842 72.9909 192.909C73.3508 192.981 73.7117 193.056 74.0715 193.128C74.2188 193.156 74.3308 193.219 74.4267 193.297L74.4299 193.296Z" fill="white"/>
<path d="M73.6774 196.188C73.7456 196.246 73.7731 196.311 73.7602 196.371C73.7222 196.565 73.6842 196.758 73.6431 196.953C73.6181 197.076 73.4395 197.14 73.2196 197.095C72.8715 197.027 72.5234 196.958 72.1765 196.882C71.9747 196.839 71.8276 196.711 71.8483 196.596C71.8841 196.396 71.9242 196.198 71.9675 195.998C71.9935 195.879 72.1721 195.815 72.3846 195.859C72.7284 195.925 73.0743 195.998 73.4192 196.067C73.5249 196.087 73.6124 196.128 73.6774 196.188Z" fill="white"/>
<path d="M69.1294 193.275C69.046 193.303 68.9467 193.303 68.8378 193.284C68.5046 193.218 68.1747 193.151 67.8437 193.081C67.6003 193.029 67.4618 192.905 67.4878 192.764C67.5247 192.577 67.5616 192.391 67.5995 192.209C67.6299 192.058 67.8063 191.999 68.0679 192.052C68.3935 192.117 68.7202 192.185 69.0427 192.251C69.2744 192.299 69.4172 192.425 69.3943 192.554C69.3585 192.744 69.3163 192.935 69.2816 193.128C69.2707 193.195 69.2225 193.244 69.1284 193.272L69.1294 193.275Z" fill="white"/>
<path d="M67.5926 194.266C67.5458 194.23 67.5373 194.192 67.5427 194.153C67.5687 194.022 67.5904 193.889 67.6206 193.761C67.6379 193.681 67.7373 193.647 67.8803 193.674C68.1076 193.72 68.3349 193.766 68.5623 193.812C68.7063 193.841 68.7809 193.909 68.7647 193.992C68.7387 194.123 68.7128 194.253 68.6868 194.384C68.6696 194.464 68.5776 194.499 68.4368 194.468C68.2062 194.423 67.9746 194.375 67.7441 194.33C67.6833 194.317 67.6267 194.295 67.5873 194.26L67.5926 194.266Z" fill="white"/>
<path d="M70.8054 196.389C70.7541 196.407 70.6965 196.404 70.6357 196.391C70.4126 196.347 70.1885 196.3 69.9644 196.253C69.8011 196.219 69.7318 196.157 69.7481 196.062C69.773 195.939 69.7936 195.814 69.8216 195.69C69.8432 195.59 69.9319 195.557 70.1038 195.596C70.3161 195.639 70.5274 195.68 70.7366 195.724C70.9116 195.762 70.9852 195.826 70.9678 195.928C70.944 196.054 70.9159 196.179 70.8921 196.305C70.8867 196.344 70.861 196.375 70.8054 196.389Z" fill="white"/>
<path d="M71.5823 194.467C71.5475 194.66 71.5095 194.854 71.4672 195.046C71.4379 195.178 71.2581 195.238 71.024 195.194C70.7248 195.135 70.4299 195.078 70.1328 195.015C69.9693 194.981 69.8239 194.97 69.6997 195.026C69.6194 195.064 69.6021 195.122 69.5934 195.184C69.5747 195.327 69.5831 195.399 69.2422 195.32C69.1311 195.294 69.0221 195.275 68.912 195.253C68.7859 195.225 68.7272 195.174 68.7403 195.103C68.7577 195.012 68.7804 194.927 68.7946 194.837C68.8001 194.776 68.9039 194.745 69.0001 194.768C69.0909 194.786 69.1796 194.808 69.2736 194.825C69.3517 194.836 69.4297 194.847 69.4971 194.824C69.6159 194.784 69.6739 194.72 69.688 194.631C69.7142 194.455 69.7565 194.286 69.7901 194.111C69.8173 193.973 69.9896 193.911 70.2311 193.956C70.571 194.02 70.9097 194.092 71.2453 194.165C71.4708 194.215 71.6094 194.339 71.5876 194.472L71.5823 194.467Z" fill="white"/>
<path d="M67.538 195.21C67.586 195.194 67.6362 195.196 67.6896 195.207C67.8486 195.239 68.0044 195.272 68.1635 195.304C68.2659 195.325 68.3267 195.372 68.318 195.434C68.3038 195.535 68.2844 195.63 68.2585 195.727C68.2445 195.784 68.1665 195.806 68.064 195.785C67.8986 195.755 67.7353 195.721 67.571 195.684C67.4717 195.661 67.4142 195.614 67.4229 195.552C67.4381 195.454 67.4597 195.355 67.4823 195.258C67.4888 195.234 67.5155 195.217 67.5412 195.209L67.538 195.21Z" fill="white"/>
<path style="mix-blend-mode:screen" opacity="0.5" d="M40.3359 6.41644L78.3528 127.216L99.8385 132.624L58.2294 0.410085L40.3359 6.41644Z" fill="url(#paint2_linear_4001_4513)"/>
<path d="M99.8257 132.606L99.3977 134.305C98.5936 137.488 93.1147 138.853 87.1626 137.353C81.2072 135.854 77.0318 132.058 77.8348 128.872L78.2628 127.173C77.4588 130.355 81.6385 134.153 87.5906 135.653C93.546 137.152 99.0249 135.787 99.8289 132.605L99.8257 132.606Z" fill="#B59101"/>
<path d="M99.8292 132.611C99.0253 135.793 93.5469 137.158 87.5952 135.658C81.6404 134.159 77.4654 130.364 78.2682 127.178C79.0721 123.996 84.5506 122.631 90.5022 124.131C96.457 125.63 100.632 129.425 99.8292 132.611Z" fill="#FFD847"/>
<path d="M87.6133 135.564C81.6873 134.07 77.5242 130.302 78.2748 127.13C78.2694 127.147 78.2661 127.159 78.2607 127.176C77.4566 130.358 81.6335 134.158 87.5895 135.657C93.5455 137.157 99.025 135.791 99.8259 132.61C99.8281 132.594 99.8303 132.579 99.8357 132.562C98.9932 135.713 93.5394 137.059 87.6133 135.564Z" fill="url(#paint3_linear_4001_4513)"/>
<path d="M98.4946 132.274C97.7904 135.064 92.9922 136.257 87.7773 134.943C82.5625 133.629 78.9019 130.304 79.6062 127.514C80.3104 124.724 85.1086 123.531 90.3235 124.846C95.5384 126.16 99.1989 129.484 98.4946 132.274Z" fill="#FF5600"/>
<path d="M98.1081 132.174C97.4341 134.847 92.8317 135.996 87.8282 134.733C82.8258 133.473 79.3145 130.284 79.9916 127.61C80.6655 124.937 85.268 123.788 90.2714 125.051C95.2738 126.311 98.7852 129.5 98.1081 132.174Z" fill="#FFCC02"/>
<path d="M87.9617 134.204C87.7129 134.135 87.4706 134.065 87.2379 133.991L87.31 133.838C87.5352 133.91 87.7733 133.978 88.0103 134.043C88.1684 134.083 88.3371 134.122 88.5015 134.16L88.4796 134.326C88.3076 134.287 88.1325 134.25 87.9627 134.207L87.9617 134.204ZM89.2645 134.473L89.2555 134.299C89.656 134.364 90.062 134.413 90.4583 134.443L90.5144 134.62C90.0998 134.589 89.68 134.541 89.2635 134.47L89.2645 134.473ZM86.4864 133.737C86.0819 133.591 85.6913 133.434 85.3264 133.268L85.4625 133.137C85.8147 133.296 86.1935 133.45 86.5852 133.589L86.4896 133.736L86.4864 133.737ZM91.2826 134.659L91.1977 134.48C91.5835 134.488 91.9661 134.474 92.3296 134.445L92.4572 134.624C92.0766 134.655 91.6791 134.666 91.2794 134.66L91.2826 134.659ZM84.6382 132.932C84.2777 132.746 83.9375 132.546 83.6229 132.337L83.8241 132.244C84.1248 132.443 84.4555 132.635 84.8 132.815L84.6382 132.932ZM93.1553 134.542L92.9999 134.365C93.3453 134.312 93.6821 134.243 93.9945 134.154L94.1895 134.321C93.8632 134.412 93.5167 134.484 93.1575 134.537L93.1553 134.542ZM83.0558 131.936C82.7691 131.714 82.5048 131.485 82.2737 131.248L82.5315 131.198C82.7551 131.423 83.0065 131.645 83.2837 131.859L83.059 131.935L83.0558 131.936ZM94.7736 134.137L94.5561 133.977C94.8418 133.87 95.1105 133.743 95.3482 133.608L95.5967 133.754C95.3472 133.896 95.0722 134.026 94.7736 134.137ZM81.8692 130.799C81.6766 130.561 81.5097 130.313 81.3748 130.067L81.6687 130.064C81.7972 130.302 81.9567 130.537 82.1439 130.77L81.8702 130.803L81.8692 130.799ZM96.0337 133.463L95.7703 133.326C95.976 133.168 96.1604 132.999 96.3085 132.817L96.5934 132.932C96.4367 133.121 96.248 133.299 96.0327 133.46L96.0337 133.463ZM81.1616 129.606C81.0673 129.364 81.0072 129.118 80.9706 128.879L81.2783 128.92C81.3085 129.15 81.3696 129.388 81.4607 129.62L81.1616 129.606ZM96.8565 132.563L96.5619 132.462C96.6748 132.269 96.761 132.059 96.8141 131.845L96.8195 131.829L97.1238 131.904L97.1195 131.924C97.0621 132.147 96.9737 132.361 96.8565 132.563ZM80.9476 128.435C80.9514 128.246 80.9799 128.055 81.0243 127.87C81.033 127.83 81.046 127.792 81.0557 127.756L81.3579 127.836C81.3481 127.872 81.3352 127.91 81.3254 127.947C81.2821 128.124 81.2547 128.307 81.253 128.492L80.9444 128.436L80.9476 128.435ZM96.8786 131.421C96.8933 131.198 96.8738 130.968 96.8254 130.736L97.1309 130.771C97.1824 131.012 97.2009 131.25 97.1851 131.481L96.8786 131.421ZM81.5163 127.45L81.2163 127.355C81.3207 127.146 81.4529 126.947 81.6138 126.76L81.8987 126.875C81.7421 127.053 81.6153 127.247 81.5153 127.447L81.5163 127.45ZM96.7008 130.298C96.6129 130.065 96.4951 129.827 96.3495 129.591L96.637 129.58C96.789 129.824 96.9132 130.071 97.0043 130.314L96.704 130.296L96.7008 130.298ZM82.2258 126.551L81.9537 126.42C82.151 126.247 82.3813 126.089 82.6318 125.949L82.8771 126.096C82.6362 126.232 82.4177 126.383 82.2258 126.551ZM96.0358 129.149C95.8528 128.918 95.6409 128.686 95.4066 128.461L95.6579 128.403C95.9018 128.636 96.1233 128.876 96.3105 129.12L96.0358 129.149ZM83.3599 125.861L83.1328 125.704C83.4175 125.583 83.732 125.477 84.0604 125.393L84.249 125.563C83.9334 125.643 83.6317 125.744 83.3567 125.862L83.3599 125.861ZM94.9388 128.049C94.6713 127.832 94.3814 127.622 94.0743 127.425L94.2713 127.33C94.5922 127.536 94.895 127.753 95.1688 127.979L94.9378 128.057L94.9388 128.049ZM84.8714 125.432L84.7096 125.257C85.0635 125.198 85.4409 125.156 85.8321 125.136L85.949 125.315C85.5749 125.333 85.2114 125.374 84.8746 125.431L84.8714 125.432ZM93.4696 127.062C93.1379 126.878 92.7837 126.701 92.4209 126.541L92.5528 126.408C92.9284 126.574 93.2986 126.757 93.6442 126.952L93.4696 127.062ZM86.6629 125.305L86.5738 125.124C86.9692 125.129 87.3816 125.153 87.8025 125.193L87.8446 125.372C87.4419 125.333 87.0412 125.312 86.6629 125.305ZM91.723 126.254C91.3441 126.111 90.9513 125.98 90.5573 125.868L90.6167 125.707C91.0266 125.825 91.4344 125.958 91.8293 126.107L91.7252 126.249L91.723 126.254ZM88.5977 125.463L88.5812 125.288C88.9871 125.348 89.409 125.424 89.8351 125.515L89.8142 125.684C89.4031 125.596 88.9929 125.523 88.5988 125.467L88.5977 125.463Z" fill="#FF5600"/>
<path d="M88.8059 127.58C88.915 127.555 89.055 127.537 89.2119 127.574C89.545 127.651 89.8814 127.704 90.2156 127.774C90.5957 127.854 90.7907 128.021 90.7463 128.24C90.7072 128.43 90.6725 128.623 90.6335 128.813C90.5934 129.012 90.3399 129.097 89.9983 129.026C89.6534 128.957 89.3085 128.887 88.9669 128.817C88.6369 128.75 88.4313 128.571 88.4671 128.381C88.5051 128.176 88.5473 127.973 88.5896 127.771C88.6058 127.688 88.6744 127.624 88.8091 127.579L88.8059 127.58Z" fill="white"/>
<path d="M90.7706 130.562C90.68 130.477 90.6418 130.39 90.657 130.304C90.695 130.099 90.7404 129.895 90.7795 129.694C90.8131 129.52 91.0816 129.426 91.3955 129.487C91.7286 129.553 92.0649 129.629 92.4002 129.691C92.5401 129.718 92.6607 129.752 92.7641 129.821C92.9028 129.911 92.9623 130.009 92.9449 130.111C92.909 130.323 92.8699 130.536 92.8223 130.744C92.7833 130.923 92.5224 131.007 92.2085 130.946C91.8519 130.873 91.4953 130.8 91.1354 130.728C90.987 130.696 90.8654 130.637 90.7663 130.56L90.7706 130.562Z" fill="white"/>
<path d="M93.1272 128.449C93.205 128.527 93.2507 128.604 93.2344 128.687C93.1921 128.901 93.1531 129.114 93.1065 129.325C93.0665 129.501 92.8013 129.583 92.4948 129.523C92.1467 129.454 91.8008 129.381 91.4517 129.31C91.11 129.239 90.9086 129.063 90.9455 128.865C90.9856 128.667 91.0225 128.47 91.0626 128.272C91.1016 128.081 91.3583 127.995 91.6882 128.062C92.048 128.134 92.4089 128.209 92.7687 128.281C92.9161 128.309 93.0281 128.372 93.124 128.45L93.1272 128.449Z" fill="white"/>
<path d="M92.3746 131.341C92.4428 131.399 92.4704 131.464 92.4574 131.524C92.4195 131.718 92.3815 131.912 92.3403 132.107C92.3154 132.23 92.1368 132.293 91.9169 132.248C91.5688 132.18 91.2207 132.112 90.8737 132.035C90.6719 131.992 90.5249 131.864 90.5455 131.75C90.5814 131.549 90.6215 131.351 90.6648 131.151C90.6908 131.032 90.8694 130.968 91.0818 131.012C91.4256 131.078 91.7716 131.151 92.1164 131.22C92.2221 131.24 92.3096 131.281 92.3746 131.341Z" fill="white"/>
<path d="M87.8267 128.428C87.7433 128.456 87.6439 128.456 87.535 128.437C87.2019 128.371 86.872 128.304 86.541 128.234C86.2976 128.182 86.1591 128.059 86.1851 127.917C86.222 127.731 86.2588 127.545 86.2968 127.362C86.3271 127.211 86.5036 127.152 86.7651 127.205C87.0908 127.27 87.4175 127.338 87.7399 127.404C87.9716 127.452 88.1144 127.578 88.0916 127.708C88.0558 127.897 88.0136 128.089 87.9788 128.281C87.968 128.348 87.9197 128.397 87.8256 128.425L87.8267 128.428Z" fill="white"/>
<path d="M86.2899 129.419C86.243 129.383 86.2346 129.345 86.24 129.306C86.266 129.175 86.2876 129.042 86.3179 128.914C86.3351 128.834 86.4345 128.801 86.5776 128.827C86.8049 128.873 87.0322 128.919 87.2595 128.965C87.4036 128.994 87.4782 129.062 87.462 129.145C87.436 129.276 87.4101 129.407 87.3841 129.537C87.3668 129.617 87.2749 129.652 87.134 129.621C86.9035 129.576 86.6719 129.528 86.4414 129.483C86.3805 129.47 86.324 129.448 86.2846 129.413L86.2899 129.419Z" fill="white"/>
<path d="M89.5027 131.543C89.4514 131.56 89.3938 131.557 89.3329 131.544C89.1099 131.5 88.8858 131.453 88.6616 131.406C88.4984 131.372 88.4291 131.31 88.4454 131.216C88.4702 131.093 88.4908 130.967 88.5189 130.843C88.5405 130.743 88.6292 130.71 88.801 130.749C89.0134 130.792 89.2247 130.833 89.4339 130.877C89.6089 130.915 89.6824 130.979 89.6651 131.081C89.6413 131.208 89.6132 131.332 89.5894 131.458C89.584 131.497 89.5583 131.528 89.5027 131.543Z" fill="white"/>
<path d="M90.2796 129.62C90.2448 129.813 90.2067 130.007 90.1645 130.199C90.1352 130.331 89.9554 130.391 89.7213 130.347C89.4221 130.288 89.1271 130.231 88.8301 130.168C88.6666 130.134 88.5212 130.123 88.397 130.18C88.3166 130.218 88.2994 130.275 88.2906 130.337C88.272 130.481 88.2804 130.552 87.9395 130.473C87.8284 130.448 87.7193 130.429 87.6093 130.406C87.4832 130.378 87.4245 130.327 87.4376 130.256C87.4549 130.165 87.4776 130.08 87.4918 129.99C87.4973 129.929 87.6012 129.898 87.6973 129.921C87.7882 129.939 87.8769 129.961 87.9709 129.978C88.0489 129.989 88.127 130 88.1944 129.977C88.3132 129.937 88.3711 129.874 88.3853 129.784C88.4115 129.608 88.4537 129.439 88.4874 129.265C88.5145 129.126 88.6869 129.065 88.9284 129.11C89.2683 129.174 89.607 129.245 89.9426 129.318C90.168 129.368 90.3067 129.492 90.2849 129.625L90.2796 129.62Z" fill="white"/>
<path d="M86.2352 130.363C86.2833 130.347 86.3335 130.349 86.3869 130.361C86.5459 130.392 86.7017 130.425 86.8607 130.457C86.9632 130.478 87.0239 130.525 87.0152 130.587C87.0011 130.688 86.9816 130.783 86.9558 130.881C86.9417 130.937 86.8637 130.96 86.7613 130.938C86.5958 130.909 86.4326 130.874 86.2682 130.837C86.169 130.815 86.1114 130.767 86.1201 130.705C86.1353 130.608 86.1569 130.508 86.1796 130.411C86.186 130.387 86.2128 130.371 86.2384 130.362L86.2352 130.363Z" fill="white"/>
<defs>
<linearGradient id="paint0_linear_4001_4513" x1="74.3454" y1="207.297" x2="52.3709" y2="141.833" gradientUnits="userSpaceOnUse">
<stop stop-color="#F34500"/>
<stop offset="1" stop-color="#F34500" stop-opacity="0"/>
</linearGradient>
<linearGradient id="paint1_linear_4001_4513" x1="73.8399" y1="201.784" x2="65.2021" y2="187.85" gradientUnits="userSpaceOnUse">
<stop stop-color="#FFDD00"/>
<stop offset="0.51" stop-color="#FFCF00"/>
<stop offset="1" stop-color="#FFBD00"/>
</linearGradient>
<linearGradient id="paint2_linear_4001_4513" x1="93.0387" y1="142.449" x2="71.0642" y2="76.9856" gradientUnits="userSpaceOnUse">
<stop stop-color="#F34500"/>
<stop offset="1" stop-color="#F34500" stop-opacity="0"/>
</linearGradient>
<linearGradient id="paint3_linear_4001_4513" x1="92.5372" y1="136.935" x2="83.8994" y2="123.001" gradientUnits="userSpaceOnUse">
<stop stop-color="#FFDD00"/>
<stop offset="0.51" stop-color="#FFCF00"/>
<stop offset="1" stop-color="#FFBD00"/>
</linearGradient>
</defs>
</svg>
