<svg width="88" height="88" viewBox="0 0 88 88" fill="none" xmlns="http://www.w3.org/2000/svg">
<rect x="0.00195312" width="88" height="88" rx="44" fill="#00FFA3" fill-opacity="0.05"/>
<rect x="0.501953" y="0.5" width="87" height="87" rx="43.5" stroke="url(#paint0_linear_2562_317)" stroke-opacity="0.54"/>
<g clip-path="url(#clip0_2562_317)">
<path d="M43.5014 36.6888C39.1938 36.6888 35.6895 40.1932 35.6895 44.5005C35.6895 48.8081 39.1938 52.3125 43.5014 52.3125C47.8087 52.3125 51.3131 48.8081 51.3131 44.5005C51.3131 40.1932 47.8087 36.6888 43.5014 36.6888ZM48.1394 43.0294L42.543 48.6258C42.3081 48.8607 42 48.9783 41.6922 48.9783C41.3844 48.9783 41.0766 48.861 40.8417 48.6258L38.703 46.4871C38.2332 46.0176 38.2332 45.2559 38.703 44.7861C39.1725 44.3163 39.9342 44.3163 40.404 44.7861L41.6922 46.0742L46.4383 41.3284C46.9079 40.8585 47.6695 40.8585 48.1394 41.3284C48.6092 41.7979 48.6092 42.5596 48.1394 43.0294Z" fill="white"/>
<path d="M60.9179 35.1242L60.9166 35.0923C60.8988 34.6985 60.8869 34.2818 60.8797 33.8183C60.8463 31.5576 59.0492 29.6877 56.7883 29.5613C52.0743 29.2982 48.4276 27.7611 45.3118 24.7241L45.2852 24.6988C44.2689 23.7669 42.7358 23.7669 41.7192 24.6988L41.6926 24.7241C38.5768 27.7611 34.9301 29.2982 30.2162 29.5616C27.9555 29.6877 26.1581 31.5576 26.1247 33.8186C26.1178 34.279 26.1056 34.6957 26.0878 35.0923L26.0859 35.1664C25.9942 39.9733 25.8804 45.9557 27.8817 51.3857C28.9821 54.3717 30.6488 56.9673 32.835 59.101C35.3249 61.5308 38.5862 63.4599 42.5281 64.8344C42.6564 64.8791 42.7896 64.9154 42.9254 64.9426C43.1168 64.9808 43.3095 64.9998 43.5022 64.9998C43.6949 64.9998 43.8879 64.9808 44.079 64.9426C44.2148 64.9154 44.349 64.8788 44.4778 64.8337C48.4151 63.4568 51.673 61.5268 54.1607 59.0972C56.3459 56.963 58.0126 54.3667 59.114 51.38C61.1228 45.9338 61.0092 39.9402 60.9179 35.1242ZM43.5016 54.7183C37.8673 54.7183 33.2838 50.1348 33.2838 44.5005C33.2838 38.8663 37.8673 34.2828 43.5016 34.2828C49.1355 34.2828 53.7193 38.8663 53.7193 44.5005C53.7193 50.1348 49.1355 54.7183 43.5016 54.7183Z" fill="white"/>
</g>
<defs>
<linearGradient id="paint0_linear_2562_317" x1="55.2251" y1="106.65" x2="121.366" y2="54.2201" gradientUnits="userSpaceOnUse">
<stop stop-color="#00CC83" stop-opacity="0"/>
<stop offset="0.515" stop-color="#00CC83" stop-opacity="0.52"/>
<stop offset="1" stop-color="#00CC83" stop-opacity="0"/>
</linearGradient>
<clipPath id="clip0_2562_317">
<rect width="41" height="41" fill="white" transform="translate(23.002 24)"/>
</clipPath>
</defs>
</svg>
