<svg width="32" height="32" viewBox="0 0 32 32" fill="none" xmlns="http://www.w3.org/2000/svg">
<g id="down 1">
<g id="16">
<path id="Vector" d="M15.9112 10.6613C16.0867 10.6602 16.2606 10.6939 16.4231 10.7602C16.5855 10.8266 16.7333 10.9243 16.8579 11.0479L24.8579 19.0479C25.1089 19.299 25.25 19.6395 25.25 19.9946C25.25 20.3497 25.1089 20.6902 24.8579 20.9413C24.6068 21.1923 24.2663 21.3334 23.9112 21.3334C23.5561 21.3334 23.2156 21.1923 22.9645 20.9413L15.9112 13.8746L8.85788 20.9279C8.60281 21.1464 8.27471 21.2605 7.93914 21.2475C7.60357 21.2346 7.28525 21.0955 7.04779 20.858C6.81033 20.6205 6.67122 20.3022 6.65826 19.9667C6.6453 19.6311 6.75944 19.303 6.97788 19.0479L14.9779 11.0479C15.2262 10.8016 15.5614 10.6627 15.9112 10.6613Z" fill="white"/>
</g>
</g>
</svg>
