<svg width="48" height="48" viewBox="0 0 48 48" fill="none" xmlns="http://www.w3.org/2000/svg">
<g id="extension-puzzle-sharp-svgrepo-com (1) 2">
<path id="Vector" d="M32.3569 45H24V40.7147C24.0013 40.3183 23.9223 39.9259 23.7678 39.5609C23.6133 39.196 23.3865 38.8661 23.101 38.5912C22.3819 37.8825 21.3357 37.484 20.235 37.5C19.256 37.5092 18.3115 37.8634 17.5679 38.5003C17.0804 38.9315 16.5 39.6778 16.5 40.7897V45H8.21441C6.83193 44.9985 5.5065 44.4486 4.52894 43.4711C3.55138 42.4935 3.00153 41.1681 3.00004 39.7856V31.5H7.28535C8.1441 31.5 8.97941 31.1325 9.63754 30.4687C10.0037 30.0997 10.2932 29.6618 10.4895 29.1804C10.6858 28.699 10.785 28.1836 10.7813 27.6637C10.7532 25.6772 9.11816 24 7.21035 24H3.00004V15.6243C2.99733 14.9417 3.1333 14.2657 3.39968 13.6372C3.66607 13.0087 4.05732 12.4409 4.54973 11.9681C5.5331 11.0196 6.84814 10.4927 8.21441 10.5H14.1432V9.14247C14.1432 8.32663 14.3057 7.51896 14.6212 6.7666C14.9367 6.01423 15.3989 5.33225 15.9808 4.76045C16.5627 4.18864 17.2527 3.73847 18.0105 3.43621C18.7683 3.13395 19.5787 2.98565 20.3944 2.99997C23.7216 3.05809 26.4282 5.84809 26.4282 9.21841V10.5H32.3569C33.0343 10.4927 33.7064 10.6208 34.3337 10.8766C34.961 11.1325 35.5308 11.5111 36.0099 11.9901C36.4889 12.4692 36.8675 13.039 37.1234 13.6663C37.3793 14.2936 37.5073 14.9657 37.5 15.6431V21.5718H38.7807C42.21 21.5718 45 24.2906 45 27.6318C45 31.064 42.2447 33.8568 38.8575 33.8568H37.5V39.7856C37.5 42.6609 35.1929 45 32.3569 45Z" fill="white"/>
</g>
</svg>
