<svg width="34" height="32" viewBox="0 0 34 32" fill="none" xmlns="http://www.w3.org/2000/svg">
<g id="right-arrow 1">
<path id="Vector" fill-rule="evenodd" clip-rule="evenodd" d="M27.6667 14.6668C24.416 14.6668 21.4533 11.7055 21.4533 8.45345C21.4533 7.71707 20.8564 7.12012 20.12 7.12012C19.3836 7.12012 18.7867 7.71707 18.7867 8.45345C18.7867 10.8188 19.824 13.0375 21.452 14.6668H6.33333C5.59695 14.6668 5 15.2638 5 16.0001C5 16.7365 5.59695 17.3335 6.33333 17.3335H21.452C19.824 18.9628 18.7867 21.1815 18.7867 23.5468C18.7867 24.2832 19.3836 24.8801 20.12 24.8801C20.8564 24.8801 21.4533 24.2832 21.4533 23.5468C21.4533 20.2948 24.416 17.3335 27.6667 17.3335C28.403 17.3335 29 16.7365 29 16.0001C29 15.2638 28.403 14.6668 27.6667 14.6668Z" fill="white"/>
</g>
</svg>
