<svg width="89" height="88" viewBox="0 0 89 88" fill="none" xmlns="http://www.w3.org/2000/svg">
<rect x="0.667969" width="88" height="88" rx="44" fill="#00FFA3" fill-opacity="0.05"/>
<rect x="1.16797" y="0.5" width="87" height="87" rx="43.5" stroke="url(#paint0_linear_2562_325)" stroke-opacity="0.54"/>
<path d="M55.6047 60.0762L52.6797 59.3262L51.3797 62.0387C50.9172 62.9887 49.5672 62.9887 49.1172 62.0262L46.4922 56.4012C49.5297 56.0762 52.3297 54.9387 54.6672 53.2262L57.0422 58.3262C57.4922 59.2887 56.6297 60.3262 55.6047 60.0762Z" fill="white"/>
<path d="M42.8422 56.4012L40.2172 62.0262C39.7672 62.9887 38.4172 62.9887 37.9547 62.0387L36.6547 59.3262L33.7297 60.0762C32.7047 60.3262 31.8422 59.2887 32.2922 58.3262L34.6672 53.2262C37.0047 54.9387 39.8047 56.0762 42.8422 56.4012Z" fill="white"/>
<path d="M44.668 25.25C36.7292 25.25 30.293 31.6863 30.293 39.625C30.293 47.5637 36.7292 54 44.668 54C52.6067 54 59.043 47.5637 59.043 39.625C59.043 31.6863 52.6067 25.25 44.668 25.25ZM51.1542 39.2887L48.843 41.5413L49.388 44.7225C49.568 45.7712 48.4667 46.5725 47.5242 46.0762L44.668 44.575L41.8117 46.0762C40.8692 46.5712 39.768 45.7712 39.948 44.7225L40.493 41.5413L38.1817 39.2887C37.4192 38.545 37.8405 37.2512 38.8942 37.0975L42.088 36.6338L43.5167 33.74C43.988 32.785 45.3492 32.785 45.8205 33.74L47.2492 36.6338L50.443 37.0975C51.4967 37.25 51.9167 38.545 51.1555 39.2887H51.1542Z" fill="white"/>
<defs>
<linearGradient id="paint0_linear_2562_325" x1="55.8912" y1="106.65" x2="122.032" y2="54.2201" gradientUnits="userSpaceOnUse">
<stop stop-color="#00CC83" stop-opacity="0"/>
<stop offset="0.515" stop-color="#00CC83" stop-opacity="0.52"/>
<stop offset="1" stop-color="#00CC83" stop-opacity="0"/>
</linearGradient>
</defs>
</svg>
