<svg width="79" height="101" viewBox="0 0 79 101" fill="none" xmlns="http://www.w3.org/2000/svg">
<g filter="url(#filter0_d_4012_4567)">
<path d="M52.6875 57.9075L54.6375 64.0975C55.5675 67.0375 57.8675 69.3375 60.8075 70.2675L66.9975 72.2175C68.2075 72.5975 68.2075 74.3075 66.9975 74.6875L60.8075 76.6375C57.8675 77.5675 55.5675 79.8675 54.6375 82.8075L52.6875 88.9975C52.3075 90.2075 50.5975 90.2075 50.2175 88.9975L48.2675 82.8075C47.3375 79.8675 45.0375 77.5675 42.0975 76.6375L35.9075 74.6875C34.6975 74.3075 34.6975 72.5975 35.9075 72.2175L42.0975 70.2675C45.0375 69.3375 47.3375 67.0375 48.2675 64.0975L50.2175 57.9075C50.5975 56.6975 52.3075 56.6975 52.6875 57.9075Z" fill="white"/>
</g>
<g filter="url(#filter1_d_4012_4567)">
<path d="M20.1355 11.4677L21.1459 14.6648C21.6275 16.1805 22.8116 17.3725 24.3352 17.8541L27.5323 18.8645C28.1559 19.0619 28.1559 19.946 27.5323 20.1355L24.3352 21.1459C22.8195 21.6275 21.6275 22.8116 21.1459 24.3352L20.1355 27.5323C19.9381 28.1559 19.054 28.1559 18.8645 27.5323L17.8541 24.3352C17.3725 22.8195 16.1884 21.6275 14.6648 21.1459L11.4677 20.1355C10.8441 19.9381 10.8441 19.054 11.4677 18.8645L14.6648 17.8541C16.1805 17.3725 17.3725 16.1884 17.8541 14.6648L18.8645 11.4677C19.0619 10.8441 19.946 10.8441 20.1355 11.4677Z" fill="white"/>
</g>
<defs>
<filter id="filter0_d_4012_4567" x="24" y="46" width="54.9043" height="54.905" filterUnits="userSpaceOnUse" color-interpolation-filters="sRGB">
<feFlood flood-opacity="0" result="BackgroundImageFix"/>
<feColorMatrix in="SourceAlpha" type="matrix" values="0 0 0 0 0 0 0 0 0 0 0 0 0 0 0 0 0 0 127 0" result="hardAlpha"/>
<feOffset/>
<feGaussianBlur stdDeviation="5.5"/>
<feComposite in2="hardAlpha" operator="out"/>
<feColorMatrix type="matrix" values="0 0 0 0 1 0 0 0 0 1 0 0 0 0 1 0 0 0 1 0"/>
<feBlend mode="normal" in2="BackgroundImageFix" result="effect1_dropShadow_4012_4567"/>
<feBlend mode="normal" in="SourceGraphic" in2="effect1_dropShadow_4012_4567" result="shape"/>
</filter>
<filter id="filter1_d_4012_4567" x="0" y="0" width="39" height="39" filterUnits="userSpaceOnUse" color-interpolation-filters="sRGB">
<feFlood flood-opacity="0" result="BackgroundImageFix"/>
<feColorMatrix in="SourceAlpha" type="matrix" values="0 0 0 0 0 0 0 0 0 0 0 0 0 0 0 0 0 0 127 0" result="hardAlpha"/>
<feOffset/>
<feGaussianBlur stdDeviation="5.5"/>
<feComposite in2="hardAlpha" operator="out"/>
<feColorMatrix type="matrix" values="0 0 0 0 1 0 0 0 0 1 0 0 0 0 1 0 0 0 1 0"/>
<feBlend mode="normal" in2="BackgroundImageFix" result="effect1_dropShadow_4012_4567"/>
<feBlend mode="normal" in="SourceGraphic" in2="effect1_dropShadow_4012_4567" result="shape"/>
</filter>
</defs>
</svg>
