<svg width="41" height="41" viewBox="0 0 41 41" fill="none" xmlns="http://www.w3.org/2000/svg">
<path d="M17.1962 9.88043L19.0982 15.8985C20.0046 18.7516 22.2336 20.9954 25.1015 21.9018L31.1196 23.8038C32.2935 24.1753 32.2935 25.8396 31.1196 26.1962L25.1015 28.0982C22.2484 29.0046 20.0046 31.2336 19.0982 34.1015L17.1962 40.1196C16.8247 41.2935 15.1604 41.2935 14.8038 40.1196L12.9018 34.1015C11.9954 31.2484 9.76643 29.0046 6.89854 28.0982L0.880427 26.1962C-0.293476 25.8247 -0.293476 24.1604 0.880427 23.8038L6.89854 21.9018C9.75157 20.9954 11.9954 18.7664 12.9018 15.8985L14.8038 9.88043C15.1753 8.70652 16.8396 8.70652 17.1962 9.88043Z" fill="#FFCC00"/>
<path d="M35.4486 0.33016L36.1618 2.58695C36.5017 3.65684 37.3376 4.49826 38.413 4.83817L40.6698 5.55143C41.1101 5.69074 41.1101 6.31484 40.6698 6.44857L38.413 7.16183C37.3432 7.50174 36.5017 8.33759 36.1618 9.41305L35.4486 11.6698C35.3093 12.1101 34.6852 12.1101 34.5514 11.6698L33.8382 9.41305C33.4983 8.34316 32.6624 7.50174 31.587 7.16183L29.3302 6.44857C28.8899 6.30926 28.8899 5.68516 29.3302 5.55143L31.587 4.83817C32.6568 4.49826 33.4983 3.66241 33.8382 2.58695L34.5514 0.33016C34.6907 -0.110053 35.3148 -0.110053 35.4486 0.33016Z" fill="#FFCC00"/>
</svg>
