<svg width="48" height="48" viewBox="0 0 48 48" fill="none" xmlns="http://www.w3.org/2000/svg">
<g id="communication 1">
<g id="Layer_2">
<path id="Vector" d="M42.9316 5.48063C36.9158 7.97183 11.122 18.6561 3.99497 21.5683C-0.784873 23.4336 2.01305 25.1822 2.01305 25.1822C2.01305 25.1822 6.09305 26.5809 9.59033 27.6302C13.0876 28.6795 14.9529 27.5136 14.9529 27.5136L31.39 16.4385C37.2186 12.4752 35.8199 15.7392 34.4212 17.1379C31.39 20.1691 26.3774 24.9485 22.1807 28.7957C20.3154 30.4277 21.2481 31.8269 22.0641 32.5262C25.0953 35.0909 33.3719 40.3368 33.8385 40.6867C36.3014 42.4301 41.1455 44.94 41.8823 39.6374L44.7969 21.335C45.7295 15.1565 46.6622 9.44399 46.7788 7.81199C47.1282 3.84863 42.9316 5.48063 42.9316 5.48063Z" fill="white"/>
</g>
</g>
</svg>
