<svg width="38" height="38" viewBox="0 0 38 38" fill="none" xmlns="http://www.w3.org/2000/svg">
<g id="twitter (2) 1" clip-path="url(#clip0_2479_12662)">
<path id="Vector" d="M20.2724 18.3512L28.8238 30.5827H25.3143L18.3362 20.6018V20.6012L17.3117 19.136L9.16016 7.47583H12.6697L19.248 16.886L20.2724 18.3512Z" fill="white"/>
<path id="Vector_2" d="M33.894 0H4.10598C1.83837 0 0 1.83837 0 4.10598V33.894C0 36.1616 1.83837 38 4.10598 38H33.894C36.1616 38 38 36.1616 38 33.894V4.10598C38 1.83837 36.1616 0 33.894 0ZM24.2376 32.2247L17.1762 21.9477L8.33522 32.2247H6.05027L16.1616 20.4717L6.05027 5.75575H13.7624L20.4491 15.4874L28.8208 5.75575H31.1058L21.464 16.9637H21.4633L31.9497 32.2247H24.2376Z" fill="white"/>
</g>
<defs>
<clipPath id="clip0_2479_12662">
<rect width="38" height="38" fill="white"/>
</clipPath>
</defs>
</svg>
