<svg width="49" height="48" viewBox="0 0 49 48" fill="none" xmlns="http://www.w3.org/2000/svg">
<path d="M24.374 25.6875C26.1619 25.6875 27.6113 24.2604 27.6113 22.5C27.6113 20.7396 26.1619 19.3125 24.374 19.3125C22.5861 19.3125 21.1367 20.7396 21.1367 22.5C21.1367 24.2604 22.5861 25.6875 24.374 25.6875Z" fill="white"/>
<path d="M35.8018 45.1875H34.4771L33.1357 41.232C30.3881 42.4791 27.3985 43.125 24.3729 43.125C21.3474 43.125 18.3578 42.4791 15.6101 41.232L14.2748 45.1875H12.9502C12.5967 45.1875 12.2576 45.3258 12.0076 45.5719C11.7576 45.8181 11.6172 46.1519 11.6172 46.5C11.6172 46.8481 11.7576 47.1819 12.0076 47.4281C12.2576 47.6742 12.5967 47.8125 12.9502 47.8125H35.8018C36.1553 47.8125 36.4944 47.6742 36.7443 47.4281C36.9943 47.1819 37.1348 46.8481 37.1348 46.5C37.1348 46.1519 36.9943 45.8181 36.7443 45.5719C36.4944 45.3258 36.1553 45.1875 35.8018 45.1875Z" fill="white"/>
<path d="M19.3683 19.425L10.5407 10.734C7.96688 13.6596 6.42392 17.3269 6.14258 21.1875H18.6241C18.7713 20.5635 19.0228 19.9679 19.3683 19.425Z" fill="white"/>
<path d="M29.3828 25.575L38.2104 34.266C40.7842 31.3404 42.3272 27.6732 42.6085 23.8125H30.127C29.9798 24.4365 29.7283 25.0321 29.3828 25.575Z" fill="white"/>
<path d="M18.6241 23.8125H6.14258C6.42392 27.6732 7.96688 31.3404 10.5407 34.266L19.3683 25.575C19.0228 25.0321 18.7713 24.4365 18.6241 23.8125Z" fill="white"/>
<path d="M27.4983 27.4305C26.9471 27.7706 26.3425 28.0182 25.709 28.1633V40.4528C29.63 40.1757 33.3545 38.6565 36.3258 36.1223L27.4983 27.4305Z" fill="white"/>
<path d="M30.127 21.1875H42.6085C42.3272 17.3269 40.7842 13.6596 38.2104 10.734L29.3828 19.425C29.7283 19.9679 29.9798 20.5635 30.127 21.1875Z" fill="white"/>
<path d="M12.4258 36.1223C15.3971 38.6565 19.1216 40.1757 23.0426 40.4528V28.1633C22.4091 28.0182 21.8045 27.7706 21.2533 27.4305L12.4258 36.1223Z" fill="white"/>
<path d="M23.1829 6.96225C23.2936 7.18017 23.4638 7.36342 23.6743 7.4915C23.8849 7.61957 24.1275 7.68741 24.375 7.68741C24.6224 7.68741 24.865 7.61957 25.0756 7.4915C25.2861 7.36342 25.4563 7.18017 25.567 6.96225L28.0426 2.08725C28.1443 1.88715 28.1923 1.66478 28.1822 1.44125C28.172 1.21773 28.104 1.00048 27.9845 0.810131C27.8651 0.619784 27.6982 0.462662 27.4997 0.353689C27.3013 0.244715 27.0778 0.187508 26.8505 0.1875H21.8994C21.6721 0.187508 21.4487 0.244715 21.2502 0.353689C21.0517 0.462662 20.8848 0.619784 20.7654 0.810131C20.646 1.00048 20.5779 1.21773 20.5677 1.44125C20.5576 1.66478 20.6056 1.88715 20.7073 2.08725L23.1829 6.96225Z" fill="white"/>
<path d="M25.707 10.0898V16.8398C26.3405 16.9848 26.9452 17.2324 27.4963 17.5725L36.3239 8.87776C34.3268 7.17669 31.9784 5.92282 29.441 5.20276L27.9541 8.13601C27.4925 9.05088 26.6862 9.75197 25.707 10.0898Z" fill="white"/>
<path d="M23.0426 16.8367V10.0867C22.0654 9.74903 21.2604 9.0495 20.7986 8.13673L19.3087 5.20123C16.7713 5.92129 14.4229 7.17517 12.4258 8.87623L21.2526 17.5695C21.8039 17.2293 22.4088 16.9817 23.0426 16.8367Z" fill="white"/>
</svg>
